<svg width="136" height="40" viewBox="0 0 136 40" fill="none" xmlns="http://www.w3.org/2000/svg">
<path d="M125.17 0.00013H10.8363C10.4195 0.00013 10.0078 0.00013 9.59213 0.00212999C9.24418 0.00412999 8.89901 0.00993997 8.54773 0.01483C7.78457 0.0227317 7.02321 0.081806 6.27027 0.191539C5.51838 0.303662 4.79004 0.515044 4.10989 0.818537C3.43057 1.1246 2.80986 1.52229 2.27027 1.99719C1.72785 2.47076 1.2757 3.01814 0.931203 3.61828C0.58576 4.21723 0.346228 4.85905 0.220882 5.52159C0.0943432 6.1833 0.0262517 6.85263 0.0172182 7.52359C0.00667134 7.83018 0.00555756 8.1378 0 8.44444V31.5586C0.00555756 31.8691 0.00667134 32.1699 0.0172182 32.4805C0.0262544 33.1514 0.0943459 33.8207 0.220882 34.4824C0.345882 35.1453 0.585428 35.7875 0.931203 36.3867C1.27554 36.9849 1.72775 37.5301 2.27027 38.001C2.80781 38.478 3.42892 38.876 4.10989 39.1797C4.79003 39.484 5.51829 39.6967 6.27027 39.8105C7.02334 39.9194 7.78462 39.9785 8.54773 39.9873C8.89901 39.9941 9.24418 39.998 9.59213 39.998C10.0078 40 10.4196 40 10.8363 40H125.17C125.578 40 125.993 40 126.402 39.998C126.748 39.998 127.103 39.9941 127.45 39.9873C128.211 39.9789 128.971 39.9198 129.723 39.8105C130.477 39.6959 131.208 39.4833 131.891 39.1797C132.572 38.8758 133.192 38.4779 133.729 38.001C134.27 37.5282 134.724 36.9835 135.072 36.3867C135.415 35.7871 135.653 35.145 135.776 34.4824C135.902 33.8207 135.973 33.1515 135.987 32.4805C135.991 32.1699 135.991 31.8691 135.991 31.5586C136 31.1953 136 30.834 136 30.4648V9.53623C136 9.17002 136 8.80674 135.991 8.44444C135.991 8.1378 135.991 7.83018 135.987 7.52355C135.973 6.85253 135.902 6.18335 135.776 5.52155C135.652 4.8594 135.415 4.21762 135.072 3.61824C134.371 2.41532 133.258 1.43615 131.891 0.818447C131.208 0.515696 130.477 0.304369 129.723 0.191449C128.971 0.0812325 128.211 0.0221377 127.45 0.01469C127.103 0.00980997 126.748 0.00394999 126.402 0.00199999C125.993 0 125.578 0 125.17 0V0.00013Z" fill="#A6A6A6"/>
<path d="M9.60448 38.998C9.25825 38.998 8.92038 38.9941 8.57686 38.9874C7.86524 38.9793 7.15528 38.9251 6.45281 38.8254C5.79778 38.7267 5.16324 38.5433 4.57012 38.2811C3.98243 38.021 3.44641 37.68 2.98259 37.2712C2.51206 36.8671 2.12032 36.3985 1.8229 35.8839C1.5222 35.3659 1.3141 34.8107 1.20584 34.2376C1.08894 33.6218 1.02569 32.9991 1.01664 32.3749C1.00943 32.1654 1 31.4679 1 31.4679V8.51947C1 8.51947 1.01005 7.83262 1.01669 7.63083C1.02536 7.00764 1.08824 6.38594 1.2048 5.77109C1.31325 5.19642 1.52152 4.63961 1.82238 4.11994C2.11871 3.60566 2.50827 3.13669 2.97596 2.7312C3.44313 2.32186 3.98087 1.97911 4.56956 1.71547C5.16132 1.45408 5.79466 1.27193 6.44836 1.17511C7.15314 1.07434 7.86557 1.01986 8.57966 1.01213L9.60504 1H126.389L127.427 1.01262C128.135 1.01997 128.841 1.07396 129.539 1.17414C130.199 1.27217 130.839 1.45559 131.438 1.71838C132.617 2.2497 133.577 3.0903 134.182 4.12236C134.478 4.63845 134.683 5.19072 134.79 5.76042C134.908 6.38031 134.974 7.0069 134.988 7.6352C134.991 7.91653 134.991 8.21873 134.991 8.51947C135 8.892 135 9.24658 135 9.60407V30.3949C135 30.7558 135 31.1079 134.991 31.463C134.991 31.786 134.991 32.082 134.987 32.3866C134.973 33.0036 134.908 33.619 134.792 34.2278C134.686 34.8051 134.479 35.3646 134.179 35.8868C133.879 36.3959 133.49 36.8605 133.025 37.2634C132.56 37.6745 132.023 38.0175 131.434 38.2792C130.838 38.5434 130.199 38.7275 129.539 38.8254C128.836 38.9257 128.126 38.9798 127.415 38.9874C127.082 38.9941 126.733 38.998 126.395 38.998L125.163 39L9.60448 38.998Z" fill="black"/>
<path d="M24.768 20.3013C24.7788 19.4666 25.0005 18.6483 25.4125 17.9223C25.8245 17.1964 26.4135 16.5864 27.1246 16.1492C26.6728 15.5041 26.0769 14.9731 25.3841 14.5986C24.6912 14.224 23.9206 14.0162 23.1334 13.9916C21.4542 13.8153 19.8262 14.9964 18.9705 14.9964C18.0982 14.9964 16.7807 14.0091 15.362 14.0383C14.4443 14.0679 13.55 14.3348 12.7661 14.8128C11.9822 15.2909 11.3356 15.9638 10.8891 16.7661C8.9551 20.1145 10.3977 25.0356 12.2503 27.7422C13.1772 29.0676 14.2605 30.548 15.6779 30.4955C17.065 30.438 17.583 29.611 19.2573 29.611C20.9161 29.611 21.4021 30.4955 22.8483 30.4621C24.3367 30.438 25.2745 29.1309 26.1688 27.793C26.8348 26.8486 27.3473 25.8049 27.6873 24.7005C26.8225 24.3347 26.0846 23.7226 25.5655 22.9403C25.0464 22.158 24.769 21.2402 24.768 20.3013Z" fill="white"/>
<path d="M22.0356 12.2113C22.8471 11.2371 23.247 9.98494 23.1501 8.7207C21.9103 8.85092 20.765 9.44348 19.9426 10.3803C19.5404 10.838 19.2324 11.3704 19.0362 11.9472C18.8399 12.524 18.7593 13.1337 18.7988 13.7417C19.419 13.7481 20.0325 13.6137 20.5932 13.3486C21.1538 13.0835 21.647 12.6946 22.0356 12.2113Z" fill="white"/>
<path d="M42.3008 27.1397H37.5674L36.4307 30.4961H34.4258L38.9092 18.0781H40.9922L45.4756 30.4961H43.4365L42.3008 27.1397ZM38.0576 25.5908H41.8096L39.96 20.1436H39.9082L38.0576 25.5908Z" fill="white"/>
<path d="M55.1573 25.9695C55.1573 28.7829 53.6514 30.5905 51.3789 30.5905C50.8033 30.6207 50.2308 30.4881 49.727 30.2079C49.2232 29.9278 48.8085 29.5114 48.5303 29.0065H48.4873V33.4909H46.6289V21.4421H48.4278V22.948H48.4619C48.7529 22.4455 49.1746 22.0313 49.6823 21.7495C50.1899 21.4676 50.7644 21.3287 51.3448 21.3474C53.6426 21.3474 55.1573 23.1638 55.1573 25.9695ZM53.2471 25.9695C53.2471 24.1365 52.2998 22.9314 50.8545 22.9314C49.4346 22.9314 48.4795 24.1618 48.4795 25.9695C48.4795 27.7937 49.4346 29.0154 50.8545 29.0154C52.2998 29.0154 53.2471 27.8191 53.2471 25.9695Z" fill="white"/>
<path d="M65.1221 25.9694C65.1221 28.7829 63.6162 30.5905 61.3438 30.5905C60.7681 30.6206 60.1956 30.488 59.6918 30.2079C59.188 29.9278 58.7733 29.5114 58.4952 29.0065H58.4521V33.4909H56.5938V21.4421H58.3926V22.948H58.4268C58.7177 22.4455 59.1394 22.0313 59.6471 21.7495C60.1547 21.4676 60.7292 21.3287 61.3096 21.3474C63.6075 21.3474 65.1221 23.1638 65.1221 25.9694ZM63.2119 25.9694C63.2119 24.1364 62.2647 22.9314 60.8194 22.9314C59.3994 22.9314 58.4444 24.1618 58.4444 25.9694C58.4444 27.7937 59.3994 29.0153 60.8194 29.0153C62.2647 29.0153 63.2119 27.8191 63.2119 25.9694H63.2119Z" fill="white"/>
<path d="M71.709 27.0362C71.8467 28.2676 73.043 29.0762 74.6778 29.0762C76.2442 29.0762 77.3711 28.2676 77.3711 27.1572C77.3711 26.1934 76.6914 25.6162 75.0821 25.2207L73.4727 24.833C71.1924 24.2822 70.1338 23.2158 70.1338 21.4854C70.1338 19.3428 72.001 17.8711 74.6524 17.8711C77.2764 17.8711 79.0752 19.3428 79.1358 21.4854H77.2598C77.1475 20.2461 76.1231 19.4981 74.626 19.4981C73.1289 19.4981 72.1045 20.2549 72.1045 21.3565C72.1045 22.2344 72.7588 22.751 74.3594 23.1465L75.7275 23.4824C78.2754 24.0849 79.334 25.1084 79.334 26.9248C79.334 29.248 77.4834 30.7031 74.54 30.7031C71.7861 30.7031 69.9268 29.2822 69.8066 27.0361L71.709 27.0362Z" fill="white"/>
<path d="M83.3437 19.2998V21.4424H85.0654V22.9141H83.3437V27.9053C83.3437 28.6807 83.6885 29.042 84.4453 29.042C84.6497 29.0384 84.8538 29.0241 85.0566 28.999V30.4619C84.7164 30.5255 84.3705 30.5543 84.0244 30.5478C82.1914 30.5478 81.4766 29.8593 81.4766 28.1035V22.9141H80.1602V21.4424H81.4765V19.2998H83.3437Z" fill="white"/>
<path d="M86.0645 25.9697C86.0645 23.1211 87.7422 21.3311 90.3584 21.3311C92.9834 21.3311 94.6533 23.1211 94.6533 25.9697C94.6533 28.8262 92.9922 30.6084 90.3584 30.6084C87.7255 30.6084 86.0645 28.8262 86.0645 25.9697ZM92.7598 25.9697C92.7598 24.0156 91.8643 22.8623 90.3584 22.8623C88.8525 22.8623 87.958 24.0244 87.958 25.9697C87.958 27.9316 88.8525 29.0762 90.3584 29.0762C91.8643 29.0762 92.7597 27.9316 92.7597 25.9697H92.7598Z" fill="white"/>
<path d="M96.1836 21.442H97.9561V22.983H97.9991C98.119 22.5017 98.4009 22.0764 98.7975 21.7785C99.1941 21.4806 99.6812 21.3284 100.177 21.3473C100.391 21.3465 100.605 21.3698 100.814 21.4166V23.1549C100.543 23.0723 100.261 23.0343 99.9785 23.0426C99.7085 23.0316 99.4394 23.0792 99.1895 23.1821C98.9397 23.285 98.7151 23.4408 98.5311 23.6386C98.3471 23.8365 98.2082 24.0719 98.1237 24.3286C98.0393 24.5852 98.0114 24.8571 98.042 25.1256V30.4957H96.1836L96.1836 21.442Z" fill="white"/>
<path d="M109.382 27.8369C109.132 29.4805 107.531 30.6084 105.483 30.6084C102.85 30.6084 101.215 28.8437 101.215 26.0127C101.215 23.1729 102.858 21.3311 105.405 21.3311C107.91 21.3311 109.485 23.0518 109.485 25.7969V26.4336H103.091V26.5459C103.061 26.8791 103.103 27.2148 103.213 27.5306C103.323 27.8464 103.5 28.1352 103.73 28.3778C103.96 28.6203 104.24 28.8111 104.549 28.9374C104.859 29.0637 105.192 29.1226 105.526 29.1103C105.966 29.1515 106.406 29.0498 106.783 28.8203C107.16 28.5909 107.452 28.246 107.617 27.8369L109.382 27.8369ZM103.1 25.1348H107.626C107.643 24.8352 107.597 24.5354 107.493 24.2541C107.388 23.9729 107.226 23.7164 107.018 23.5006C106.809 23.2849 106.558 23.1145 106.281 23.0003C106.003 22.8861 105.705 22.8305 105.405 22.8369C105.103 22.8351 104.803 22.8933 104.523 23.008C104.243 23.1227 103.988 23.2918 103.774 23.5054C103.559 23.7191 103.389 23.973 103.274 24.2527C103.158 24.5323 103.099 24.8321 103.1 25.1348V25.1348Z" fill="white"/>
<path d="M37.8271 8.7304C38.2168 8.70244 38.6077 8.7613 38.9718 8.90274C39.3359 9.04417 39.6641 9.26465 39.9327 9.54828C40.2013 9.8319 40.4036 10.1716 40.525 10.5429C40.6464 10.9141 40.6839 11.3077 40.6348 11.6952C40.6348 13.6015 39.6045 14.6972 37.8271 14.6972H35.6719V8.7304H37.8271ZM36.5986 13.8534H37.7236C38.002 13.87 38.2806 13.8244 38.5392 13.7198C38.7977 13.6152 39.0297 13.4542 39.2182 13.2487C39.4067 13.0431 39.5469 12.7981 39.6288 12.5315C39.7107 12.2648 39.7321 11.9833 39.6914 11.7074C39.7291 11.4326 39.7056 11.1528 39.6224 10.8881C39.5393 10.6235 39.3987 10.3805 39.2106 10.1765C39.0226 9.97261 38.7917 9.8128 38.5346 9.70856C38.2776 9.60433 38.0006 9.55824 37.7236 9.57361H36.5986V13.8534Z" fill="white"/>
<path d="M41.6819 12.4438C41.6536 12.1479 41.6875 11.8493 41.7813 11.5672C41.8751 11.2852 42.0269 11.0258 42.2268 10.8059C42.4268 10.5859 42.6705 10.4101 42.9423 10.2898C43.2142 10.1696 43.5082 10.1074 43.8055 10.1074C44.1027 10.1074 44.3967 10.1696 44.6686 10.2898C44.9404 10.4101 45.1841 10.5859 45.3841 10.8059C45.584 11.0258 45.7358 11.2852 45.8296 11.5672C45.9235 11.8493 45.9573 12.1479 45.929 12.4438C45.9578 12.74 45.9244 13.039 45.8308 13.3215C45.7372 13.6041 45.5855 13.8639 45.3855 14.0843C45.1856 14.3047 44.9417 14.4808 44.6695 14.6014C44.3974 14.7219 44.1031 14.7842 43.8055 14.7842C43.5078 14.7842 43.2135 14.7219 42.9414 14.6014C42.6693 14.4808 42.4254 14.3047 42.2254 14.0843C42.0254 13.8639 41.8737 13.6041 41.7801 13.3215C41.6865 13.039 41.6531 12.74 41.6819 12.4438ZM45.0149 12.4438C45.0149 11.4677 44.5764 10.8969 43.8069 10.8969C43.0345 10.8969 42.5999 11.4677 42.5999 12.4438C42.5999 13.4277 43.0345 13.9941 43.8069 13.9941C44.5765 13.9941 45.0149 13.4238 45.0149 12.4438H45.0149Z" fill="white"/>
<path d="M51.5742 14.6973H50.6523L49.7217 11.3809H49.6514L48.7246 14.6973H47.8115L46.5703 10.1943H47.4717L48.2783 13.6303H48.3447L49.2705 10.1943H50.1231L51.0488 13.6303H51.1191L51.9219 10.1943H52.8105L51.5742 14.6973Z" fill="white"/>
<path d="M53.8555 10.1939H54.7109V10.9092H54.7773C54.89 10.6523 55.08 10.4369 55.3209 10.2931C55.5617 10.1493 55.8415 10.0842 56.1211 10.107C56.3402 10.0905 56.5602 10.1235 56.7648 10.2036C56.9694 10.2837 57.1533 10.4088 57.303 10.5697C57.4527 10.7305 57.5643 10.923 57.6295 11.1328C57.6947 11.3426 57.7118 11.5644 57.6797 11.7818V14.6968H56.791V12.0049C56.791 11.2813 56.4766 10.9214 55.8193 10.9214C55.6706 10.9145 55.5221 10.9398 55.384 10.9957C55.246 11.0515 55.1216 11.1365 55.0195 11.2449C54.9174 11.3533 54.8399 11.4825 54.7924 11.6236C54.7448 11.7647 54.7284 11.9145 54.7441 12.0625V14.6968H53.8555L53.8555 10.1939Z" fill="white"/>
<path d="M59.0938 8.43652H59.9824V14.6973H59.0938V8.43652Z" fill="white"/>
<path d="M61.219 12.4439C61.1907 12.1479 61.2246 11.8494 61.3185 11.5673C61.4123 11.2852 61.5641 11.0259 61.7641 10.8059C61.964 10.5859 62.2078 10.4101 62.4796 10.2898C62.7515 10.1696 63.0455 10.1074 63.3428 10.1074C63.6401 10.1074 63.9341 10.1696 64.206 10.2898C64.4778 10.4101 64.7215 10.5859 64.9215 10.8059C65.1215 11.0259 65.2733 11.2852 65.3671 11.5673C65.461 11.8494 65.4949 12.1479 65.4666 12.4439C65.4954 12.7401 65.4619 13.0391 65.3683 13.3216C65.2747 13.6042 65.123 13.864 64.9229 14.0844C64.7229 14.3048 64.479 14.4809 64.2069 14.6014C63.9348 14.722 63.6404 14.7842 63.3428 14.7842C63.0452 14.7842 62.7508 14.722 62.4787 14.6014C62.2065 14.4809 61.9626 14.3048 61.7626 14.0844C61.5626 13.864 61.4109 13.6042 61.3173 13.3216C61.2237 13.0391 61.1902 12.7401 61.219 12.4439ZM64.552 12.4439C64.552 11.4678 64.1135 10.897 63.344 10.897C62.5715 10.897 62.137 11.4678 62.137 12.4439C62.137 13.4278 62.5716 13.9942 63.344 13.9942C64.1135 13.9942 64.552 13.4239 64.552 12.4439H64.552Z" fill="white"/>
<path d="M66.4023 13.4238C66.4023 12.6133 67.0059 12.146 68.0771 12.0796L69.2969 12.0093V11.6206C69.2969 11.145 68.9824 10.8765 68.375 10.8765C67.8789 10.8765 67.5352 11.0586 67.4365 11.377H66.5762C66.667 10.6035 67.3945 10.1074 68.416 10.1074C69.5449 10.1074 70.1816 10.6694 70.1816 11.6206V14.6973H69.3262V14.0645H69.2559C69.1131 14.2914 68.9127 14.4765 68.6751 14.6007C68.4375 14.7249 68.1712 14.7838 67.9033 14.7715C67.7143 14.7911 67.5232 14.7709 67.3425 14.7122C67.1617 14.6536 66.9953 14.5576 66.8538 14.4307C66.7124 14.3037 66.5992 14.1485 66.5214 13.9751C66.4437 13.8017 66.4031 13.6139 66.4023 13.4238ZM69.2969 13.0391V12.6626L68.1973 12.7329C67.5771 12.7744 67.2959 12.9853 67.2959 13.3823C67.2959 13.7876 67.6474 14.0234 68.1309 14.0234C68.2725 14.0378 68.4156 14.0235 68.5516 13.9814C68.6876 13.9393 68.8138 13.8703 68.9226 13.7784C69.0313 13.6866 69.1205 13.5738 69.1849 13.4468C69.2492 13.3198 69.2873 13.1811 69.2969 13.0391Z" fill="white"/>
<path d="M71.3496 12.4439C71.3496 11.021 72.0811 10.1196 73.2188 10.1196C73.5002 10.1067 73.7795 10.1741 74.024 10.314C74.2685 10.4539 74.4682 10.6605 74.5996 10.9096H74.666V8.43652H75.5547V14.6973H74.7031V13.9858H74.6328C74.4912 14.2333 74.2846 14.4374 74.0353 14.5758C73.7861 14.7143 73.5037 14.782 73.2188 14.7715C72.0732 14.7715 71.3496 13.8701 71.3496 12.4439ZM72.2676 12.4439C72.2676 13.3989 72.7178 13.9737 73.4707 13.9737C74.2197 13.9737 74.6826 13.3907 74.6826 12.4478C74.6826 11.5093 74.2149 10.918 73.4707 10.918C72.7227 10.918 72.2676 11.4966 72.2676 12.4439H72.2676Z" fill="white"/>
<path d="M79.2307 12.4438C79.2024 12.1479 79.2363 11.8493 79.3301 11.5672C79.424 11.2852 79.5757 11.0258 79.7757 10.8059C79.9756 10.5859 80.2193 10.4101 80.4912 10.2898C80.763 10.1696 81.057 10.1074 81.3543 10.1074C81.6516 10.1074 81.9455 10.1696 82.2174 10.2898C82.4892 10.4101 82.7329 10.5859 82.9329 10.8059C83.1328 11.0258 83.2846 11.2852 83.3784 11.5672C83.4723 11.8493 83.5061 12.1479 83.4778 12.4438C83.5067 12.74 83.4732 13.039 83.3796 13.3215C83.286 13.6041 83.1344 13.8639 82.9344 14.0843C82.7344 14.3047 82.4905 14.4808 82.2184 14.6014C81.9462 14.7219 81.6519 14.7842 81.3543 14.7842C81.0567 14.7842 80.7623 14.7219 80.4902 14.6014C80.2181 14.4808 79.9742 14.3047 79.7742 14.0843C79.5742 13.8639 79.4225 13.6041 79.3289 13.3215C79.2353 13.039 79.2019 12.74 79.2307 12.4438ZM82.5637 12.4438C82.5637 11.4677 82.1253 10.8969 81.3557 10.8969C80.5833 10.8969 80.1487 11.4677 80.1487 12.4438C80.1487 13.4277 80.5833 13.9941 81.3557 13.9941C82.1253 13.9941 82.5637 13.4238 82.5637 12.4438Z" fill="white"/>
<path d="M84.6699 10.1939H85.5254V10.9092H85.5918C85.7045 10.6523 85.8945 10.4369 86.1353 10.2931C86.3762 10.1493 86.6559 10.0842 86.9356 10.107C87.1547 10.0905 87.3746 10.1235 87.5792 10.2036C87.7838 10.2837 87.9678 10.4088 88.1175 10.5697C88.2672 10.7305 88.3787 10.923 88.4439 11.1328C88.5091 11.3426 88.5263 11.5644 88.4941 11.7818V14.6968H87.6055V12.0049C87.6055 11.2813 87.291 10.9214 86.6338 10.9214C86.485 10.9145 86.3365 10.9398 86.1985 10.9957C86.0604 11.0515 85.9361 11.1365 85.8339 11.2449C85.7318 11.3533 85.6543 11.4825 85.6068 11.6236C85.5593 11.7647 85.5428 11.9145 85.5586 12.0625V14.6968H84.6699V10.1939Z" fill="white"/>
<path d="M93.5166 9.07324V10.2148H94.4922V10.9634H93.5166V13.2788C93.5166 13.7505 93.7109 13.957 94.1533 13.957C94.2666 13.9567 94.3797 13.9498 94.4922 13.9365V14.6768C94.3326 14.7053 94.1709 14.7205 94.0088 14.7222C93.0205 14.7222 92.627 14.3745 92.627 13.5063V10.9633H91.9121V10.2148H92.627V9.07324H93.5166Z" fill="white"/>
<path d="M95.7051 8.43652H96.5859V10.918H96.6562C96.7744 10.6587 96.9696 10.4421 97.2153 10.2977C97.461 10.1534 97.7452 10.0883 98.0292 10.1113C98.2472 10.0995 98.4651 10.1359 98.6674 10.2179C98.8697 10.2999 99.0513 10.4256 99.1995 10.586C99.3476 10.7463 99.4585 10.9373 99.5243 11.1455C99.5901 11.3536 99.6091 11.5737 99.58 11.79V14.6973H98.6905V12.0093C98.6905 11.29 98.3555 10.9258 97.7276 10.9258C97.5748 10.9132 97.4212 10.9342 97.2774 10.9873C97.1337 11.0404 97.0032 11.1242 96.8952 11.2329C96.7872 11.3417 96.7043 11.4727 96.6522 11.6168C96.6002 11.761 96.5802 11.9147 96.5938 12.0674V14.6973H95.7051L95.7051 8.43652Z" fill="white"/>
<path d="M104.761 13.4815C104.641 13.8931 104.379 14.249 104.022 14.4872C103.666 14.7253 103.237 14.8305 102.81 14.7842C102.514 14.7921 102.219 14.7353 101.946 14.6177C101.674 14.5002 101.43 14.3248 101.232 14.1036C101.034 13.8825 100.887 13.6209 100.8 13.3371C100.713 13.0533 100.69 12.754 100.73 12.46C100.691 12.1652 100.715 11.8652 100.801 11.5805C100.888 11.2959 101.035 11.0331 101.231 10.81C101.428 10.587 101.671 10.4088 101.943 10.2876C102.214 10.1664 102.509 10.105 102.806 10.1075C104.059 10.1075 104.815 10.9635 104.815 12.3775V12.6876H101.635V12.7374C101.621 12.9026 101.642 13.069 101.696 13.2257C101.751 13.3825 101.837 13.5262 101.95 13.6476C102.063 13.7691 102.2 13.8656 102.352 13.931C102.504 13.9964 102.669 14.0292 102.835 14.0274C103.047 14.0529 103.263 14.0146 103.453 13.9174C103.644 13.8202 103.802 13.6685 103.906 13.4815L104.761 13.4815ZM101.635 12.0303H103.91C103.921 11.8792 103.9 11.7274 103.85 11.5847C103.799 11.442 103.718 11.3115 103.614 11.2016C103.51 11.0918 103.383 11.005 103.243 10.9468C103.103 10.8886 102.953 10.8604 102.801 10.8638C102.648 10.8619 102.495 10.8908 102.353 10.9487C102.21 11.0067 102.081 11.0925 101.972 11.2012C101.864 11.3099 101.778 11.4393 101.72 11.5817C101.662 11.7241 101.633 11.8766 101.635 12.0303H101.635Z" fill="white"/>
</svg>
