<svg width="17" height="16" viewBox="0 0 17 16" fill="none" xmlns="http://www.w3.org/2000/svg">
<g opacity="0.7">
<path d="M12.0655 11.1046C11.5437 11.6263 10.5462 12.6239 9.70809 13.462C8.92704 14.243 7.66154 14.2431 6.88049 13.462C6.0581 12.6396 5.07736 11.6589 4.52303 11.1046C2.44024 9.02177 2.44024 5.64489 4.52303 3.5621C6.60583 1.4793 9.98271 1.4793 12.0655 3.5621C14.1483 5.64489 14.1483 9.02177 12.0655 11.1046Z" stroke="#161C2D" stroke-linecap="round" stroke-linejoin="round"/>
<path d="M10.2943 7.33333C10.2943 8.4379 9.39884 9.33333 8.29427 9.33333C7.1897 9.33333 6.29427 8.4379 6.29427 7.33333C6.29427 6.22876 7.1897 5.33333 8.29427 5.33333C9.39884 5.33333 10.2943 6.22876 10.2943 7.33333Z" stroke="#161C2D" stroke-linecap="round" stroke-linejoin="round"/>
</g>
</svg>
