<svg width="31" height="32" viewBox="0 0 31 32" fill="none" xmlns="http://www.w3.org/2000/svg">
<path d="M11.2417 20.628L4.29053 27.5792M20.5479 20.4523L22.6874 18.3129C23.1717 17.8286 23.8285 17.5565 24.5135 17.5565C26.8142 17.5565 27.9665 14.7748 26.3396 13.1479L18.7218 5.53013C17.0949 3.90324 14.3132 5.05547 14.3132 7.35624C14.3132 8.04116 14.0411 8.69804 13.5568 9.18235L11.4174 11.3218C10.933 11.8061 10.2762 12.0782 9.59125 12.0782C7.29047 12.0782 6.13824 14.8599 7.76514 16.4868L15.3829 24.1045C17.0098 25.7314 19.7915 24.5792 19.7915 22.2784C19.7915 21.5935 20.0636 20.9366 20.5479 20.4523Z" stroke="#FFA800" stroke-width="1.90089" stroke-linecap="round"/>
</svg>
