<svg width="24" height="25" viewBox="0 0 24 25" fill="none" xmlns="http://www.w3.org/2000/svg">
<path d="M24 2.86944C23.1 3.36429 22.15 3.67357 21.15 3.85913C22.15 3.11687 22.95 1.94161 23.3 0.518927C22.35 1.19934 21.3 1.69419 20.15 2.00346C19.25 0.828206 17.95 0.0859375 16.55 0.0859375C13.85 0.0859375 11.65 2.80759 11.65 6.14779C11.65 6.64264 11.7 7.07563 11.8 7.50862C7.75 7.2612 4.1 4.84882 1.65 1.13748C1.25 2.06532 1 3.05501 1 4.16841C1 6.2715 1.85 8.12717 3.2 9.24058C2.4 9.17872 1.65 8.9313 0.95 8.49831V8.56016C0.95 11.5292 2.65 14.0035 4.9 14.5602C4.5 14.6839 4.05 14.7457 3.6 14.7457C3.3 14.7457 2.95 14.6839 2.65 14.622C3.3 17.0344 5.1 18.8282 7.25 18.8282C5.55 20.4365 3.45 21.4261 1.15 21.4261C0.75 21.4261 0.35 21.4261 0 21.3643C2.2 23.0962 4.75 24.0859 7.55 24.0859C16.6 24.0859 21.55 14.8076 21.55 6.76635C21.55 6.51893 21.55 6.20965 21.55 5.96223C22.5 5.1581 23.35 4.10656 24 2.86944Z" fill="#161C2D"/>
</svg>
