<svg width="24" height="25" viewBox="0 0 24 25" fill="none" xmlns="http://www.w3.org/2000/svg">
<path d="M24 12.1583C23.999 5.73554 19.0009 0.437708 12.6264 0.102638C6.25194 -0.232431 0.732449 4.51256 0.0663487 10.9003C-0.599751 17.288 3.82071 23.0824 10.1255 24.0859V15.6485H7.07909V12.1583H10.1255V9.49826C10.1255 6.47221 11.9172 4.80071 14.6576 4.80071C15.5575 4.81327 16.4554 4.89196 17.344 5.03615V8.00787H15.8305C15.3081 7.93806 14.7825 8.1111 14.4021 8.47812C14.0217 8.84515 13.8279 9.36631 13.8754 9.89444V12.1583H17.2037L16.6713 15.6485H13.8754V24.0859C19.7069 23.1577 24.0009 18.099 24 12.1583Z" fill="#161C2D"/>
</svg>
