<svg width="24" height="25" viewBox="0 0 24 25" fill="none" xmlns="http://www.w3.org/2000/svg">
<path d="M24 12.9864C23.999 6.56367 19.0009 1.26583 12.6264 0.930763C6.25194 0.595694 0.732449 5.34068 0.0663487 11.7284C-0.599751 18.1161 3.82071 23.9105 10.1255 24.9141V16.4766H7.07909V12.9864H10.1255V10.3264C10.1255 7.30033 11.9172 5.62883 14.6576 5.62883C15.5575 5.64139 16.4554 5.72008 17.344 5.86428V8.836H15.8305C15.3081 8.76618 14.7825 8.93922 14.4021 9.30625C14.0217 9.67327 13.8279 10.1944 13.8754 10.7226V12.9864H17.2037L16.6713 16.4766H13.8754V24.9141C19.7069 23.9858 24.0009 18.9271 24 12.9864Z" fill="#161C2D"/>
</svg>
