<svg width="24" height="25" viewBox="0 0 24 25" fill="none" xmlns="http://www.w3.org/2000/svg">
<path d="M24 3.69757C23.1 4.19241 22.15 4.50169 21.15 4.68726C22.15 3.94499 22.95 2.76973 23.3 1.34705C22.35 2.02746 21.3 2.52231 20.15 2.83159C19.25 1.65633 17.95 0.914062 16.55 0.914062C13.85 0.914062 11.65 3.63571 11.65 6.97592C11.65 7.47076 11.7 7.90375 11.8 8.33674C7.75 8.08932 4.1 5.67695 1.65 1.96561C1.25 2.89344 1 3.88313 1 4.99654C1 7.09963 1.85 8.9553 3.2 10.0687C2.4 10.0068 1.65 9.75942 0.95 9.32643V9.38829C0.95 12.3574 2.65 14.8316 4.9 15.3883C4.5 15.512 4.05 15.5739 3.6 15.5739C3.3 15.5739 2.95 15.512 2.65 15.4501C3.3 17.8625 5.1 19.6563 7.25 19.6563C5.55 21.2646 3.45 22.2543 1.15 22.2543C0.75 22.2543 0.35 22.2543 0 22.1924C2.2 23.9244 4.75 24.9141 7.55 24.9141C16.6 24.9141 21.55 15.6357 21.55 7.59447C21.55 7.34705 21.55 7.03777 21.55 6.79035C22.5 5.98623 23.35 4.93468 24 3.69757Z" fill="#161C2D"/>
</svg>
