<svg width="32" height="33" viewBox="0 0 32 33" fill="none" xmlns="http://www.w3.org/2000/svg">
<g clip-path="url(#clip0_5954_36902)">
<path d="M25.7199 23.5534L23.9999 21.8334V15.1667C23.9999 11.0734 21.8133 7.64671 17.9999 6.74004V5.83337C17.9999 4.72671 17.1066 3.83337 15.9999 3.83337C14.8933 3.83337 13.9999 4.72671 13.9999 5.83337V6.74004C10.1733 7.64671 7.99995 11.06 7.99995 15.1667V21.8334L6.27995 23.5534C5.43995 24.3934 6.02661 25.8334 7.21328 25.8334H24.7733C25.9733 25.8334 26.5599 24.3934 25.7199 23.5534ZM21.3333 23.1667H10.6666V15.1667C10.6666 11.86 12.6799 9.16671 15.9999 9.16671C19.3199 9.16671 21.3333 11.86 21.3333 15.1667V23.1667ZM15.9999 29.8334C17.4666 29.8334 18.6666 28.6334 18.6666 27.1667H13.3333C13.3333 28.6334 14.5199 29.8334 15.9999 29.8334Z" fill="#A3AED0"/>
</g>
<defs>
<clipPath id="clip0_5954_36902">
<rect width="32" height="32" fill="white" transform="translate(0 0.5)"/>
</clipPath>
</defs>
</svg>
