<svg width="24" height="25" viewBox="0 0 24 25" fill="none" xmlns="http://www.w3.org/2000/svg">
<path d="M12 4.61621C7 4.61621 2.73 7.72621 1 12.1162C2.73 16.5062 7 19.6162 12 19.6162C17 19.6162 21.27 16.5062 23 12.1162C21.27 7.72621 17 4.61621 12 4.61621ZM12 17.1162C9.24 17.1162 7 14.8762 7 12.1162C7 9.35621 9.24 7.11621 12 7.11621C14.76 7.11621 17 9.35621 17 12.1162C17 14.8762 14.76 17.1162 12 17.1162ZM12 9.11621C10.34 9.11621 9 10.4562 9 12.1162C9 13.7762 10.34 15.1162 12 15.1162C13.66 15.1162 15 13.7762 15 12.1162C15 10.4562 13.66 9.11621 12 9.11621Z" fill="black" fill-opacity="0.56"/>
</svg>
