<svg width="48" height="47" viewBox="0 0 48 47" fill="none" xmlns="http://www.w3.org/2000/svg">
<g clip-path="url(#clip0_6366_7351)">
<path d="M27.7151 31.2513C26.7117 32.2581 25.7022 33.2593 24.6977 34.2656C23.9721 34.9923 23.253 35.7263 22.5267 36.4531C21.6704 37.3091 20.8076 38.1579 19.9529 39.0156C19.0785 39.8926 18.2161 40.7828 17.3378 41.6549C16.6639 42.3248 16.2402 43.0797 16.2842 44.0749C16.319 44.8481 16.2776 45.6262 16.271 46.4032C16.2702 46.5403 16.2856 46.6769 16.3168 46.8103C16.3224 46.8347 16.3335 46.8576 16.3493 46.8771C16.3641 46.8956 16.3828 46.9108 16.404 46.9214C16.4252 46.9321 16.4484 46.9381 16.4721 46.9389L17.4463 46.9704L18.1627 46.9782H19.3722C19.5182 46.9737 19.6628 46.9479 19.8014 46.9014L20.4918 46.6694L20.4819 46.6728H20.4869L20.7117 46.5623L21.1084 46.2773H21.1277L21.1354 46.2597C21.183 46.2359 21.2277 46.2068 21.2688 46.173L21.2814 46.1625C21.7531 45.7041 22.2259 45.2468 22.692 44.7818C23.6861 43.791 24.6779 42.797 25.6675 41.7996C26.2296 41.234 26.785 40.6613 27.3432 40.092H27.3597L27.3652 40.0759C27.4848 39.9655 27.6093 39.8622 27.7234 39.7446C28.4074 39.0506 29.0899 38.3551 29.771 37.6581H29.7853V37.6443L29.8437 37.5891L29.8481 37.5852C29.9324 37.4969 30.0173 37.4091 30.1021 37.3207L30.1203 37.3113L30.7815 36.6453L31.4306 35.9826L31.5568 35.8721L32.5249 34.8963H32.5415V34.8797L32.8093 34.6036L32.8771 34.5483L33.4744 33.9408L33.5355 33.8856L34.2805 33.1434L35.2806 32.1371L35.3572 32.0653L35.6095 31.7986H35.625L35.6299 31.7837L36.9408 30.4583L37.0108 30.3986L37.0587 30.3533L37.0648 30.3467L38.0335 29.3714L38.1123 29.3002C38.1977 29.2123 38.2825 29.124 38.3674 29.0362L38.3828 29.0262L38.5839 28.8142L38.6192 28.781C38.7101 28.7054 38.8071 28.6358 38.8898 28.5524C39.2848 28.1548 39.6728 27.751 40.0678 27.3545C41.1757 26.2423 42.2849 25.132 43.3954 24.0238C44.1547 23.2644 44.9229 22.5139 45.6772 21.7496C45.9775 21.4453 46.2514 21.1139 46.5373 20.7953L46.5533 20.7892V20.7726L46.8255 20.4131C47.1378 20.0457 47.3111 19.5797 47.3148 19.0971C47.3402 18.1372 47.3192 17.1708 47.3264 16.2043C47.3264 15.974 47.2316 15.8972 47.0123 15.8989C46.0023 15.9072 44.9912 15.8818 43.9817 15.9237C43.6291 15.9387 43.2571 16.0624 42.9392 16.2242C42.1226 16.6406 41.5727 17.3806 40.9285 18.0036C40.1775 18.7304 39.4557 19.4875 38.7173 20.2281C37.7332 21.215 36.7435 22.1969 35.7589 23.1833M42.5783 17.2685C42.6058 17.2354 42.6334 17.2 42.6582 17.1658C42.6312 17.1973 42.6031 17.2326 42.5783 17.2657V17.2685ZM41.9622 17.8208C41.9515 17.8351 41.9383 17.8473 41.9231 17.8567C41.9374 17.8472 41.9498 17.835 41.9595 17.8208H41.9622ZM46.6619 20.3833L46.6068 20.349C46.6234 20.3619 46.6409 20.3737 46.6591 20.3844L46.6619 20.3833ZM41.4233 18.0373C41.4421 18.0008 41.4603 17.9638 41.4784 17.9268C41.4603 17.9633 41.4421 18.0003 41.4233 18.0373C41.3578 18.0831 41.285 18.1223 41.2217 18.1704C41.2823 18.1234 41.355 18.0842 41.4206 18.0384L41.4233 18.0373ZM27.5928 32.0648C27.7377 31.8593 27.8595 31.6318 28.0336 31.4529C27.8617 31.6318 27.7399 31.8593 27.5928 32.0659C27.6826 32.0753 27.7719 32.0841 27.8578 32.0919L27.5933 32.067C27.5267 32.0852 27.4446 32.0874 27.39 32.1222C27.4407 32.0891 27.5228 32.0869 27.5895 32.067L27.5928 32.0648ZM26.2152 33.335C26.234 33.2798 26.2522 33.2245 26.2703 33.1693C26.2516 33.2245 26.2334 33.2798 26.2152 33.335C26.1734 33.3632 26.1298 33.3902 26.0863 33.4145C26.1265 33.3913 26.1701 33.3659 26.2114 33.3378L26.2152 33.335ZM23.1295 36.4277C23.0662 36.4686 22.999 36.5056 22.9339 36.5448C22.9951 36.5089 23.0623 36.4719 23.1257 36.431L23.1295 36.4277ZM16.7377 43.0549C16.7653 42.9996 16.7928 42.9444 16.8198 42.8892C16.7923 42.945 16.7642 43.0002 16.7372 43.0554L16.7377 43.0549ZM28.8601 38.3606L28.6061 38.6688L28.859 38.3645L28.8601 38.3606ZM33.4744 33.7569C33.483 33.7582 33.4915 33.7602 33.4997 33.763C33.4913 33.7612 33.4829 33.7599 33.4744 33.7591V33.7569ZM33.9824 33.2809C33.967 33.2842 33.9515 33.287 33.9356 33.2892C33.9196 33.2914 33.8887 33.2974 33.8667 33.303C33.8887 33.2974 33.9124 33.2936 33.9356 33.2892C33.9587 33.2847 33.9664 33.2847 33.9818 33.2814L33.9824 33.2809ZM35.3599 31.7196C35.3897 31.6932 35.4214 31.669 35.4547 31.6473C35.4216 31.6699 35.3902 31.6948 35.3605 31.7218L35.3599 31.7196ZM40.5395 26.7084C40.5577 26.6901 40.5759 26.6714 40.5946 26.6531C40.5764 26.673 40.5582 26.6918 40.5395 26.7084ZM42.2477 24.9964C42.2658 24.9776 42.2846 24.9593 42.3028 24.9411C42.2851 24.961 42.2664 24.9792 42.2477 24.9964ZM46.9638 19.5842C46.9969 19.4389 47.1424 19.3312 47.2046 19.1976C47.1429 19.3329 46.9974 19.4406 46.9644 19.5842H46.9638Z" fill="#F0001C"/>
<path d="M47.4007 22.8475L47.3836 22.7475C47.3817 22.7364 47.3775 22.7257 47.3714 22.7162C47.3652 22.7067 47.3572 22.6986 47.3478 22.6923C47.3313 22.6804 47.3111 22.6748 47.2909 22.6766C47.2706 22.6784 47.2517 22.6875 47.2376 22.7022C43.2354 26.7305 39.2258 30.7519 35.2089 34.7665C31.2647 38.719 27.3222 42.6721 23.3323 46.6755C23.307 46.7007 23.2897 46.7328 23.2826 46.7678C23.2756 46.8027 23.279 46.8391 23.2925 46.8721C23.306 46.9051 23.329 46.9334 23.3585 46.9534C23.388 46.9733 23.4228 46.9841 23.4584 46.9842C25.0746 46.9908 26.6907 47.0124 28.3074 46.9903C28.9113 46.9809 29.513 46.9168 30.1054 46.7987C31.3311 46.5616 32.4599 45.9674 33.3503 45.0905C35.2089 43.2736 37.035 41.4235 38.871 39.5833C41.0249 37.4251 43.1849 35.2718 45.325 33.0997C46.6519 31.7528 47.3583 30.1175 47.3925 28.2188C47.4217 26.4389 47.4013 24.6589 47.4029 22.8784C47.403 22.8681 47.4023 22.8577 47.4007 22.8475Z" fill="#F28500"/>
<path d="M40.3666 15.9094C38.5301 15.9133 36.6935 15.9127 34.8564 15.9249C33.1604 15.9359 31.6941 16.5462 30.4907 17.7313C28.4409 19.7499 26.4132 21.7927 24.3843 23.8311C22.3814 25.843 20.3553 27.835 18.3959 29.8895C17.2486 31.0928 16.5847 32.5878 16.5042 34.2573C16.4188 36.0848 16.4662 37.9188 16.4579 39.7502C16.4582 39.7946 16.4607 39.839 16.4656 39.8832C16.4684 39.9113 16.4791 39.938 16.4964 39.9603C16.5137 39.9825 16.5369 39.9994 16.5634 40.0089C16.5899 40.0185 16.6185 40.0203 16.646 40.0142C16.6734 40.008 16.6986 39.9942 16.7186 39.9744L40.4702 16.1613C40.4908 16.1407 40.5048 16.1144 40.5105 16.0858C40.5162 16.0573 40.5134 16.0276 40.5023 16.0007C40.4912 15.9737 40.4724 15.9507 40.4482 15.9344C40.4241 15.9182 40.3957 15.9095 40.3666 15.9094Z" fill="#F28500"/>
<path d="M16.8496 28.5011C16.481 28.1299 16.1173 27.7533 15.7476 27.3827C14.5353 26.1644 13.3231 24.9471 12.1108 23.7306L8.13855 19.751C7.10999 18.7271 6.07628 17.7085 5.03743 16.6953C4.52498 16.1983 3.91611 15.9155 3.18105 15.9221C2.21732 15.9293 1.25249 15.9127 0.288755 15.8995C0.0898379 15.8967 -0.00163106 15.9757 2.19981e-05 16.1756C0.00994032 17.1509 -0.00383513 18.1268 0.0347361 19.1026C0.0589809 19.7212 0.260653 20.3027 0.701468 20.7594C1.76861 21.8617 2.84309 22.9565 3.92492 24.0437C5.589 25.7188 7.26299 27.3833 8.92816 29.0566C10.7425 30.8802 12.5546 32.706 14.3645 34.534C14.3907 34.5602 14.424 34.5782 14.4602 34.5858C14.4964 34.5935 14.534 34.5905 14.5686 34.5772C14.6031 34.5639 14.6331 34.5408 14.6549 34.5108C14.6766 34.4808 14.6893 34.4451 14.6913 34.4081C14.8015 32.3493 15.4252 30.4958 16.854 28.9633C17.0011 28.8015 17.0022 28.6551 16.8496 28.5011Z" fill="#F0001C"/>
<path d="M14.3536 37.2097C14.1224 36.8471 13.8576 36.5071 13.5629 36.1941C11.7748 34.3816 9.9719 32.5851 8.17503 30.7819C6.88932 29.4933 5.60582 28.2032 4.32452 26.9116C2.99179 25.5704 1.65906 24.2276 0.326334 22.8834C0.324588 22.8813 0.322547 22.8794 0.320273 22.8779C0.260196 22.8266 0.197477 22.7785 0.132376 22.7338C0.121103 22.7259 0.108106 22.721 0.0944976 22.7193C0.0808896 22.7176 0.0670761 22.7192 0.0542396 22.7241C0.041403 22.7289 0.0299258 22.7368 0.0207904 22.747C0.0116551 22.7573 0.00513376 22.7696 0.00178472 22.7829C0.000707175 22.7904 0.000707175 22.798 0.00178472 22.8055C0.00949897 24.5689 0.0243765 26.3323 0.0260295 28.0957C0.0260295 30.0623 0.729128 31.7379 2.10226 33.1296C3.41534 34.4617 4.74715 35.7832 6.0718 37.1125C7.6242 38.6666 9.17568 40.221 10.7262 41.7759C11.9181 42.9754 13.1017 44.1826 14.2908 45.3844C14.3278 45.4211 14.367 45.4556 14.4081 45.4876C14.4313 45.5065 14.4594 45.5183 14.489 45.5218C14.5187 45.5252 14.5487 45.5202 14.5756 45.5072C14.6025 45.4943 14.6252 45.4739 14.641 45.4486C14.6568 45.4232 14.6651 45.3938 14.6649 45.3639C14.655 43.0444 14.6412 40.7249 14.6357 38.4054C14.6346 37.9774 14.5889 37.5632 14.3536 37.2097Z" fill="#F28500"/>
<path d="M8.15954 17.3242C11.4565 20.6297 14.7519 23.9367 18.0459 27.2451C18.2663 27.466 18.3142 27.466 18.5319 27.2396C19.0939 26.6597 19.6521 26.0749 20.223 25.5033C20.904 24.8218 21.5921 24.1465 22.2871 23.4776C22.4634 23.3075 22.4871 23.1771 22.2954 23.0021C22.038 22.7668 21.7994 22.51 21.5548 22.2637C20.0279 20.7389 18.5242 19.1887 16.9659 17.6987C15.9261 16.7046 14.6665 16.0745 13.2151 15.9535C12.101 15.8607 10.9796 15.9055 9.86163 15.8585C8.953 15.8585 8.04327 15.8585 7.1352 15.8635C7.12639 15.8629 7.11756 15.8629 7.10875 15.8635C7.07544 15.8695 7.04422 15.8839 7.01808 15.9054C6.99193 15.927 6.97172 15.9548 6.9594 15.9864C6.94707 16.018 6.94303 16.0522 6.94767 16.0858C6.9523 16.1194 6.96546 16.1512 6.98587 16.1783C6.99398 16.1893 7.00301 16.1997 7.01287 16.2092C7.38977 16.5875 7.78319 16.947 8.15954 17.3242Z" fill="#F28500"/>
<path d="M13.4306 14.1526C15.2875 14.3818 16.8992 15.1224 18.2244 16.4617C18.3346 16.5721 18.4415 16.6798 18.5551 16.793C18.5894 16.827 18.6329 16.85 18.6802 16.8592C18.7276 16.8685 18.7766 16.8635 18.8211 16.8449C18.8656 16.8263 18.9036 16.795 18.9304 16.7548C18.9572 16.7146 18.9715 16.6674 18.9716 16.619V4.96626C18.9727 4.93336 18.964 4.90088 18.9466 4.87297C18.9292 4.84505 18.9039 4.82296 18.874 4.80951C18.844 4.79606 18.8107 4.79186 18.7783 4.79745C18.746 4.80304 18.716 4.81816 18.6923 4.84089C18.2707 5.25067 17.8498 5.66045 17.4376 6.07962C16.5493 6.98147 15.6407 7.86509 14.7883 8.80008C13.5347 10.1741 13.0002 11.8375 13.0024 13.6821C13.003 14.098 13.0146 14.1013 13.4306 14.1526Z" fill="#F0001C"/>
<path d="M20.6919 7.85623C20.6997 8.88565 20.7035 9.92335 20.7046 10.9533C20.7046 12.1633 20.6793 13.3518 20.6919 14.5624C20.6991 15.2428 20.7079 15.9375 20.6919 16.6174C20.6787 16.9176 20.6837 17.2184 20.7068 17.5181C20.7184 17.6396 20.7234 17.7611 20.7267 17.8831C20.7437 18.5276 21.0716 19.0981 21.519 19.5736C22.1736 20.27 22.8415 20.9515 23.5181 21.6281C23.5979 21.7059 23.6896 21.7704 23.7898 21.8191C23.8109 21.8301 23.8346 21.8351 23.8584 21.8336C23.8822 21.8321 23.9051 21.8243 23.9248 21.8109C23.9309 21.8067 23.9359 21.801 23.9391 21.7943L23.9854 21.7479L24.1083 21.6297C24.159 21.58 24.1331 21.5745 24.1793 21.522C24.3265 21.3492 25.11 20.6174 25.229 20.4981C26.638 19.0197 25.3943 20.2568 25.8776 19.7896C25.8882 19.7794 25.8984 19.7687 25.9079 19.7575C25.9255 19.736 26.0682 19.5002 26.082 19.4753C26.1895 19.2809 26.158 19.2892 26.2886 19.1114C26.5509 18.7552 26.7256 18.4785 26.7256 18.0621C26.7295 13.5517 26.6 8.91216 26.6 4.40181C26.6 4.07045 26.6308 3.73909 26.5812 3.41601C26.4876 2.8041 26.1459 2.31148 25.7205 1.87796C25.1414 1.28924 24.5529 0.708811 23.9683 0.123963C23.7986 -0.046135 23.6542 -0.0417169 23.4795 0.140531C22.8784 0.761276 22.1494 1.34944 21.551 1.97184C21.2678 2.26565 20.9217 2.63456 20.8126 3.04047C20.633 3.70871 20.6732 4.38579 20.6798 5.06784C20.6881 5.99785 20.6853 6.92676 20.6919 7.85623Z" fill="#F28500"/>
<path d="M34.5098 13.4756C34.4817 11.6315 33.9208 9.97696 32.6446 8.62336C31.7773 7.70273 30.8543 6.83402 29.9518 5.94653C29.533 5.53399 29.1054 5.13139 28.6773 4.72823C28.6531 4.70648 28.623 4.69236 28.5908 4.68765C28.5586 4.68294 28.5258 4.68785 28.4964 4.70176C28.4669 4.71568 28.4423 4.73797 28.4255 4.76587C28.4086 4.79376 28.4004 4.826 28.4018 4.85857L28.5913 16.5114C28.5925 16.5595 28.6078 16.6063 28.6353 16.6458C28.6629 16.6854 28.7014 16.7159 28.7462 16.7335C28.7909 16.7512 28.8399 16.7553 28.8869 16.7452C28.9339 16.7352 28.977 16.7115 29.0106 16.677C29.1236 16.5611 29.231 16.4512 29.3374 16.3402C30.6356 14.9772 32.2335 14.2106 34.0888 13.9511C34.5037 13.8931 34.5153 13.8892 34.5098 13.4756Z" fill="#F0001C"/>
</g>
<defs>
<clipPath id="clip0_6366_7351">
<rect width="47.4084" height="47" fill="white"/>
</clipPath>
</defs>
</svg>
