<svg width="177" height="23" viewBox="0 0 177 23" fill="none" xmlns="http://www.w3.org/2000/svg">
<path d="M5.2628 22.3446L8.10911 4.29707H0.821289L1.47813 0.293457H20.9019L20.2763 4.29707H12.9885L10.1109 22.3446H5.2628Z" fill="black"/>
<path d="M19.3641 22.3446L22.8673 0.293457H27.5903L26.2141 9.11392C27.3401 7.48745 29.0187 6.67421 31.2499 6.67421C32.918 6.67421 34.19 7.19552 35.0658 8.23812C35.9624 9.28073 36.2335 10.9385 35.879 13.2114L34.4402 22.3446H29.7172L31.1248 13.3052C31.4584 11.3242 30.8224 10.3338 29.2168 10.3338C28.1533 10.3338 27.2984 10.6778 26.652 11.3659C26.0056 12.0332 25.5885 12.9611 25.4008 14.1497L24.0872 22.3446H19.3641Z" fill="black"/>
<path d="M46.3174 22.6887C44.7118 22.6887 43.3147 22.3967 42.1261 21.8129C40.9376 21.2082 40.0201 20.3845 39.3736 19.3419C38.7272 18.2784 38.404 17.0377 38.404 15.6198C38.404 13.8682 38.7689 12.3251 39.4988 10.9906C40.2494 9.63522 41.2712 8.58219 42.564 7.83151C43.8777 7.05998 45.3686 6.67421 47.0368 6.67421C48.7467 6.67421 50.1125 7.04955 51.1343 7.80023C52.156 8.53006 52.865 9.52053 53.2612 10.7717C53.6574 12.0019 53.7616 13.3678 53.574 14.8691L53.4488 15.6823H42.783C42.8038 16.7875 43.1583 17.6424 43.8464 18.2472C44.5346 18.8519 45.5146 19.1542 46.7866 19.1542C47.6624 19.1542 48.5069 19.0291 49.3201 18.7789C50.1542 18.5287 50.8945 18.1637 51.5409 17.6841L52.5731 20.7807C51.8224 21.3646 50.8945 21.8337 49.7893 22.1882C48.6841 22.5218 47.5268 22.6887 46.3174 22.6887ZM47.0055 9.80204C45.8795 9.80204 45.0037 10.1461 44.3782 10.8342C43.7526 11.5015 43.3356 12.3043 43.127 13.2426H49.9457C50.0082 12.2626 49.7997 11.4494 49.3201 10.8029C48.8614 10.1357 48.0898 9.80204 47.0055 9.80204Z" fill="black"/>
<path d="M64.2445 22.3446L67.7476 0.293457H72.5958L71.1882 9.14519H81.4162L82.855 0.293457H87.7031L84.2 22.3446H79.3519L80.7907 13.1801H70.5314L69.0926 22.3446H64.2445Z" fill="black"/>
<path d="M96.5947 22.6887C94.9891 22.6887 93.592 22.3967 92.4034 21.8129C91.2149 21.2082 90.2974 20.3845 89.6509 19.3419C89.0045 18.2784 88.6813 17.0377 88.6813 15.6198C88.6813 13.8682 89.0462 12.3251 89.7761 10.9906C90.5267 9.63522 91.5485 8.58219 92.8413 7.83151C94.155 7.05998 95.6459 6.67421 97.3141 6.67421C99.024 6.67421 100.39 7.04955 101.412 7.80023C102.433 8.53006 103.142 9.52053 103.538 10.7717C103.935 12.0019 104.039 13.3678 103.851 14.8691L103.726 15.6823H93.0603C93.0811 16.7875 93.4356 17.6424 94.1237 18.2472C94.8119 18.8519 95.7919 19.1542 97.0639 19.1542C97.9397 19.1542 98.7842 19.0291 99.5974 18.7789C100.432 18.5287 101.172 18.1637 101.818 17.6841L102.85 20.7807C102.1 21.3646 101.172 21.8337 100.067 22.1882C98.9614 22.5218 97.8041 22.6887 96.5947 22.6887ZM97.2828 9.80204C96.1568 9.80204 95.281 10.1461 94.6555 10.8342C94.0299 11.5015 93.6129 12.3043 93.4043 13.2426H100.223C100.286 12.2626 100.077 11.4494 99.5974 10.8029C99.1387 10.1357 98.3671 9.80204 97.2828 9.80204Z" fill="black"/>
<path d="M110.727 22.6887C109.768 22.6887 108.892 22.4697 108.1 22.0318C107.307 21.5731 106.682 20.9788 106.223 20.249C105.764 19.5191 105.535 18.7268 105.535 17.8718C105.535 16.2454 106.223 15.0672 107.599 14.3374C108.996 13.5867 111.175 13.2114 114.136 13.2114H116.263L116.326 12.8047C116.472 11.9498 116.315 11.293 115.857 10.8342C115.419 10.3755 114.668 10.1461 113.605 10.1461C111.77 10.1461 109.997 10.657 108.287 11.6787L107.318 8.48835C108.131 7.9462 109.163 7.5083 110.414 7.17467C111.686 6.84103 112.969 6.67421 114.262 6.67421C116.013 6.67421 117.389 6.99742 118.39 7.64384C119.391 8.29026 120.069 9.16605 120.423 10.2712C120.778 11.3555 120.84 12.5754 120.611 13.9308L119.297 22.3446H114.887L115.231 20.0926C114.731 20.9892 114.084 21.6461 113.292 22.0631C112.5 22.4801 111.645 22.6887 110.727 22.6887ZM112.322 19.5296C113.219 19.5296 113.97 19.2585 114.574 18.7163C115.2 18.1533 115.586 17.4026 115.732 16.4643L115.888 15.6511H114.23C112.708 15.6511 111.634 15.797 111.009 16.089C110.383 16.36 110.07 16.8501 110.07 17.559C110.07 18.1846 110.279 18.6746 110.696 19.0291C111.134 19.3627 111.676 19.5296 112.322 19.5296Z" fill="black"/>
<path d="M128.67 22.6887C126.751 22.6887 125.375 22.1674 124.541 21.1248C123.707 20.0613 123.446 18.5287 123.759 16.5269L126.324 0.293457H131.047L128.482 16.4643C128.253 18.0699 128.857 18.8727 130.296 18.8727C130.505 18.8727 130.723 18.8623 130.953 18.8414C131.182 18.8206 131.412 18.7997 131.641 18.7789L131.015 22.3759C130.327 22.5844 129.545 22.6887 128.67 22.6887Z" fill="black"/>
<path d="M141.435 22.6887C139.829 22.6887 138.432 22.3967 137.244 21.8129C136.055 21.2082 135.138 20.3845 134.491 19.3419C133.845 18.2784 133.522 17.0377 133.522 15.6198C133.522 13.8682 133.886 12.3251 134.616 10.9906C135.367 9.63522 136.389 8.58219 137.682 7.83151C138.995 7.05998 140.486 6.67421 142.154 6.67421C143.864 6.67421 145.23 7.04955 146.252 7.80023C147.274 8.53006 147.983 9.52053 148.379 10.7717C148.775 12.0019 148.879 13.3678 148.692 14.8691L148.566 15.6823H137.901C137.921 16.7875 138.276 17.6424 138.964 18.2472C139.652 18.8519 140.632 19.1542 141.904 19.1542C142.78 19.1542 143.624 19.0291 144.438 18.7789C145.272 18.5287 146.012 18.1637 146.658 17.6841L147.691 20.7807C146.94 21.3646 146.012 21.8337 144.907 22.1882C143.802 22.5218 142.644 22.6887 141.435 22.6887ZM142.123 9.80204C140.997 9.80204 140.121 10.1461 139.496 10.8342C138.87 11.5015 138.453 12.3043 138.245 13.2426H145.063C145.126 12.2626 144.917 11.4494 144.438 10.8029C143.979 10.1357 143.207 9.80204 142.123 9.80204Z" fill="black"/>
<path d="M150.25 22.3446L152.69 6.987H157.319L156.881 9.61437C157.361 8.75943 158.017 8.08173 158.852 7.58128C159.686 7.05998 160.676 6.75762 161.823 6.67421L163.262 6.58038L163.105 10.5527L160.103 10.8655C158.852 10.9906 157.944 11.3555 157.381 11.9602C156.839 12.5649 156.474 13.4616 156.287 14.6502L155.067 22.3446H150.25Z" fill="black"/>
<path d="M169.525 22.6887C168.19 22.6887 166.928 22.5323 165.74 22.2195C164.551 21.9067 163.55 21.4584 162.737 20.8745L164.113 17.8405C164.864 18.341 165.719 18.7372 166.678 19.0291C167.637 19.3002 168.576 19.4357 169.493 19.4357C170.39 19.4357 171.057 19.2793 171.495 18.9666C171.954 18.6538 172.183 18.2576 172.183 17.778C172.183 17.0899 171.693 16.652 170.713 16.4643L167.867 15.9326C166.637 15.724 165.688 15.2757 165.02 14.5876C164.353 13.8786 164.02 12.9924 164.02 11.929C164.02 10.9906 164.291 10.1252 164.833 9.33286C165.396 8.51963 166.219 7.87321 167.304 7.39361C168.388 6.91401 169.723 6.67421 171.307 6.67421C172.287 6.67421 173.288 6.82018 174.31 7.11211C175.353 7.38319 176.249 7.80023 177 8.36324L175.686 11.3347C174.998 10.8551 174.248 10.5006 173.434 10.2712C172.642 10.021 171.85 9.89587 171.057 9.89587C170.119 9.89587 169.41 10.0627 168.93 10.3963C168.471 10.73 168.242 11.1574 168.242 11.6787C168.242 11.9707 168.336 12.2313 168.524 12.4607C168.732 12.6692 169.066 12.8152 169.525 12.8986L172.34 13.4303C175.05 13.9308 176.406 15.2653 176.406 17.4339C176.406 19.1229 175.77 20.4262 174.498 21.3437C173.247 22.2403 171.589 22.6887 169.525 22.6887Z" fill="black"/>
</svg>
