<svg width="177" height="23" viewBox="0 0 177 23" fill="none" xmlns="http://www.w3.org/2000/svg">
<path d="M5.2628 22.4492L8.10911 4.34663H0.821289L1.47813 0.330811H20.9019L20.2763 4.34663H12.9885L10.1109 22.4492H5.2628Z" fill="#232323"/>
<path d="M19.3641 22.4492L22.8673 0.330811H27.5903L26.2141 9.17816C27.3401 7.54674 29.0187 6.73102 31.2499 6.73102C32.918 6.73102 34.19 7.25392 35.0658 8.2997C35.9624 9.34549 36.2335 11.0083 35.879 13.2881L34.4402 22.4492H29.7172L31.1247 13.3822C31.4584 11.3952 30.8224 10.4017 29.2168 10.4017C28.1533 10.4017 27.2984 10.7468 26.652 11.4371C26.0055 12.1064 25.5885 13.0371 25.4008 14.2293L24.0871 22.4492H19.3641Z" fill="#232323"/>
<path d="M46.3174 22.7943C44.7118 22.7943 43.3147 22.5015 42.1261 21.9158C40.9375 21.3093 40.0201 20.4831 39.3736 19.4373C38.7272 18.3706 38.404 17.1261 38.404 15.7039C38.404 13.9469 38.7689 12.3992 39.4988 11.0606C40.2494 9.70106 41.2712 8.64481 42.564 7.89185C43.8777 7.11796 45.3686 6.73102 47.0368 6.73102C48.7467 6.73102 50.1125 7.10751 51.1342 7.86047C52.156 8.59252 52.865 9.58602 53.2612 10.841C53.6574 12.075 53.7616 13.445 53.5739 14.9509L53.4488 15.7666H42.783C42.8038 16.8752 43.1583 17.7327 43.8464 18.3393C44.5345 18.9458 45.5146 19.2491 46.7866 19.2491C47.6624 19.2491 48.5069 19.1236 49.3201 18.8726C50.1542 18.6216 50.8944 18.2556 51.5409 17.7745L52.573 20.8805C51.8224 21.4662 50.8944 21.9368 49.7893 22.2923C48.6841 22.627 47.5268 22.7943 46.3174 22.7943ZM47.0055 9.86838C45.8795 9.86838 45.0037 10.2135 44.3782 10.9037C43.7526 11.573 43.3355 12.3783 43.127 13.3195H49.9457C50.0082 12.3364 49.7997 11.5207 49.3201 10.8723C48.8614 10.203 48.0898 9.86838 47.0055 9.86838Z" fill="#232323"/>
<path d="M64.2445 22.4492L67.7476 0.330811H72.5957L71.1882 9.20954H81.4162L82.855 0.330811H87.7031L84.2 22.4492H79.3518L80.7906 13.2567H70.5314L69.0926 22.4492H64.2445Z" fill="#232323"/>
<path d="M96.5947 22.7943C94.9891 22.7943 93.592 22.5015 92.4034 21.9158C91.2148 21.3093 90.2973 20.4831 89.6509 19.4373C89.0045 18.3706 88.6813 17.1261 88.6813 15.7039C88.6813 13.9469 89.0462 12.3992 89.776 11.0606C90.5267 9.70106 91.5485 8.64481 92.8413 7.89185C94.155 7.11796 95.6459 6.73102 97.3141 6.73102C99.024 6.73102 100.39 7.10751 101.412 7.86047C102.433 8.59252 103.142 9.58602 103.538 10.841C103.935 12.075 104.039 13.445 103.851 14.9509L103.726 15.7666H93.0602C93.0811 16.8752 93.4356 17.7327 94.1237 18.3393C94.8118 18.9458 95.7919 19.2491 97.0639 19.2491C97.9396 19.2491 98.7842 19.1236 99.5974 18.8726C100.431 18.6216 101.172 18.2556 101.818 17.7745L102.85 20.8805C102.1 21.4662 101.172 21.9368 100.067 22.2923C98.9614 22.627 97.8041 22.7943 96.5947 22.7943ZM97.2828 9.86838C96.1568 9.86838 95.281 10.2135 94.6554 10.9037C94.0299 11.573 93.6128 12.3783 93.4043 13.3195H100.223C100.286 12.3364 100.077 11.5207 99.5974 10.8723C99.1386 10.203 98.3671 9.86838 97.2828 9.86838Z" fill="#232323"/>
<path d="M110.727 22.7943C109.768 22.7943 108.892 22.5747 108.1 22.1355C107.307 21.6753 106.682 21.0792 106.223 20.3472C105.764 19.6151 105.535 18.8203 105.535 17.9628C105.535 16.3313 106.223 15.1496 107.599 14.4176C108.996 13.6646 111.175 13.2881 114.136 13.2881H116.263L116.326 12.8802C116.472 12.0227 116.315 11.3639 115.857 10.9037C115.419 10.4436 114.668 10.2135 113.605 10.2135C111.77 10.2135 109.997 10.7259 108.287 11.7508L107.318 8.55069C108.131 8.00688 109.163 7.56765 110.414 7.233C111.686 6.89835 112.969 6.73102 114.261 6.73102C116.013 6.73102 117.389 7.05522 118.39 7.70361C119.391 8.35199 120.069 9.23045 120.423 10.339C120.778 11.4266 120.84 12.6502 120.611 14.0097L119.297 22.4492H114.887L115.231 20.1903C114.731 21.0897 114.084 21.7485 113.292 22.1668C112.499 22.5851 111.645 22.7943 110.727 22.7943ZM112.322 19.6256C113.219 19.6256 113.97 19.3537 114.574 18.8099C115.2 18.2451 115.586 17.4922 115.732 16.551L115.888 15.7352H114.23C112.708 15.7352 111.634 15.8817 111.009 16.1745C110.383 16.4464 110.07 16.9379 110.07 17.649C110.07 18.2765 110.279 18.768 110.696 19.1236C111.134 19.4582 111.676 19.6256 112.322 19.6256Z" fill="#232323"/>
<path d="M128.67 22.7943C126.751 22.7943 125.375 22.2714 124.541 21.2256C123.707 20.1589 123.446 18.6216 123.759 16.6137L126.324 0.330811H131.047L128.482 16.551C128.252 18.1615 128.857 18.9667 130.296 18.9667C130.504 18.9667 130.723 18.9563 130.953 18.9354C131.182 18.9144 131.412 18.8935 131.641 18.8726L131.015 22.4806C130.327 22.6897 129.545 22.7943 128.67 22.7943Z" fill="#232323"/>
<path d="M141.435 22.7943C139.829 22.7943 138.432 22.5015 137.244 21.9158C136.055 21.3093 135.138 20.4831 134.491 19.4373C133.845 18.3706 133.522 17.1261 133.522 15.7039C133.522 13.9469 133.886 12.3992 134.616 11.0606C135.367 9.70106 136.389 8.64481 137.682 7.89185C138.995 7.11796 140.486 6.73102 142.154 6.73102C143.864 6.73102 145.23 7.10751 146.252 7.86047C147.274 8.59252 147.983 9.58602 148.379 10.841C148.775 12.075 148.879 13.445 148.691 14.9509L148.566 15.7666H137.9C137.921 16.8752 138.276 17.7327 138.964 18.3393C139.652 18.9458 140.632 19.2491 141.904 19.2491C142.78 19.2491 143.624 19.1236 144.438 18.8726C145.272 18.6216 146.012 18.2556 146.658 17.7745L147.691 20.8805C146.94 21.4662 146.012 21.9368 144.907 22.2923C143.802 22.627 142.644 22.7943 141.435 22.7943ZM142.123 9.86838C140.997 9.86838 140.121 10.2135 139.496 10.9037C138.87 11.573 138.453 12.3783 138.245 13.3195H145.063C145.126 12.3364 144.917 11.5207 144.438 10.8723C143.979 10.203 143.207 9.86838 142.123 9.86838Z" fill="#232323"/>
<path d="M150.25 22.4492L152.69 7.04476H157.319L156.881 9.68014C157.361 8.8226 158.017 8.14284 158.852 7.64086C159.686 7.11796 160.676 6.81469 161.823 6.73102L163.262 6.6369L163.105 10.6213L160.103 10.9351C158.852 11.0606 157.944 11.4266 157.381 12.0332C156.839 12.6397 156.474 13.5391 156.287 14.7313L155.067 22.4492H150.25Z" fill="#232323"/>
<path d="M169.524 22.7943C168.19 22.7943 166.928 22.6374 165.74 22.3237C164.551 22.01 163.55 21.5603 162.737 20.9746L164.113 17.9314C164.864 18.4334 165.719 18.8308 166.678 19.1236C167.637 19.3955 168.576 19.5314 169.493 19.5314C170.39 19.5314 171.057 19.3746 171.495 19.0608C171.954 18.7471 172.183 18.3497 172.183 17.8686C172.183 17.1784 171.693 16.7392 170.713 16.551L167.867 16.0176C166.636 15.8085 165.688 15.3588 165.02 14.6685C164.353 13.9574 164.02 13.0685 164.02 12.0018C164.02 11.0606 164.291 10.1926 164.833 9.39778C165.396 8.58207 166.219 7.93368 167.304 7.45262C168.388 6.97155 169.723 6.73102 171.307 6.73102C172.287 6.73102 173.288 6.87743 174.31 7.17025C175.353 7.44216 176.249 7.86047 177 8.4252L175.686 11.4057C174.998 10.9246 174.247 10.5691 173.434 10.339C172.642 10.088 171.849 9.9625 171.057 9.9625C170.119 9.9625 169.41 10.1298 168.93 10.4645C168.471 10.7991 168.242 11.2279 168.242 11.7508C168.242 12.0436 168.336 12.3051 168.524 12.5351C168.732 12.7443 169.066 12.8907 169.524 12.9744L172.34 13.5077C175.05 14.0097 176.406 15.3483 176.406 17.5235C176.406 19.2177 175.77 20.5249 174.498 21.4452C173.247 22.3446 171.589 22.7943 169.524 22.7943Z" fill="#232323"/>
</svg>
