<svg width="180" height="24" viewBox="0 0 180 24" fill="none" xmlns="http://www.w3.org/2000/svg">
<path d="M5.35175 23.1818L8.24631 4.69404H0.834961L1.50294 0.592773H21.2559L20.6198 4.69404H13.2084L10.282 23.1818H5.35175Z" fill="black"/>
<path d="M19.6921 23.1818L23.2546 0.592773H28.0577L26.6581 9.62837C27.8032 7.96223 29.5103 7.12916 31.7793 7.12916C33.4757 7.12916 34.7693 7.66318 35.6599 8.73122C36.5717 9.79925 36.8474 11.4974 36.4869 13.8258L35.0237 23.1818H30.2207L31.652 13.9219C31.9913 11.8926 31.3446 10.878 29.7117 10.878C28.6302 10.878 27.7608 11.2304 27.1034 11.9353C26.4461 12.6189 26.022 13.5694 25.8311 14.787L24.4952 23.1818H19.6921Z" fill="black"/>
<path d="M47.1022 23.5342C45.4694 23.5342 44.0486 23.2352 42.8399 22.6371C41.6312 22.0176 40.6981 21.1739 40.0407 20.1058C39.3834 19.0164 39.0547 17.7455 39.0547 16.2929C39.0547 14.4986 39.4258 12.9179 40.168 11.5508C40.9314 10.1624 41.9704 9.08367 43.2852 8.31468C44.6211 7.52433 46.1373 7.12916 47.8338 7.12916C49.5726 7.12916 50.9616 7.51365 52.0007 8.28264C53.0398 9.03027 53.7607 10.0449 54.1637 11.3265C54.5666 12.5868 54.6726 13.986 54.4817 15.5239L54.3545 16.357H43.5079C43.5291 17.4891 43.8896 18.3649 44.5893 18.9844C45.2891 19.6038 46.2858 19.9136 47.5793 19.9136C48.47 19.9136 49.3288 19.7854 50.1558 19.5291C51.004 19.2727 51.7568 18.8989 52.4142 18.4076L53.4639 21.5797C52.7005 22.1778 51.7568 22.6584 50.6329 23.0216C49.509 23.3633 48.3321 23.5342 47.1022 23.5342ZM47.802 10.3333C46.6569 10.3333 45.7662 10.6857 45.1301 11.3906C44.4939 12.0742 44.0698 12.8966 43.8577 13.8578H50.792C50.8556 12.8538 50.6435 12.0208 50.1558 11.3586C49.6893 10.675 48.9047 10.3333 47.802 10.3333Z" fill="black"/>
<path d="M65.3331 23.1818L68.8956 0.592773H73.8259L72.3946 9.66041H82.7959L84.2591 0.592773H89.1894L85.6268 23.1818H80.6965L82.1597 13.7937H71.7266L70.2634 23.1818H65.3331Z" fill="black"/>
<path d="M98.2316 23.5342C96.5988 23.5342 95.178 23.2352 93.9693 22.6371C92.7606 22.0176 91.8276 21.1739 91.1702 20.1058C90.5128 19.0164 90.1841 17.7455 90.1841 16.2929C90.1841 14.4986 90.5552 12.9179 91.2974 11.5508C92.0608 10.1624 93.0999 9.08367 94.4146 8.31468C95.7506 7.52433 97.2668 7.12916 98.9632 7.12916C100.702 7.12916 102.091 7.51365 103.13 8.28264C104.169 9.03027 104.89 10.0449 105.293 11.3265C105.696 12.5868 105.802 13.986 105.611 15.5239L105.484 16.357H94.6373C94.6585 17.4891 95.019 18.3649 95.7188 18.9844C96.4186 19.6038 97.4152 19.9136 98.7088 19.9136C99.5994 19.9136 100.458 19.7854 101.285 19.5291C102.133 19.2727 102.886 18.8989 103.544 18.4076L104.593 21.5797C103.83 22.1778 102.886 22.6584 101.762 23.0216C100.638 23.3633 99.4616 23.5342 98.2316 23.5342ZM98.9314 10.3333C97.7863 10.3333 96.8957 10.6857 96.2595 11.3906C95.6233 12.0742 95.1992 12.8966 94.9872 13.8578H101.921C101.985 12.8538 101.773 12.0208 101.285 11.3586C100.819 10.675 100.034 10.3333 98.9314 10.3333Z" fill="black"/>
<path d="M112.604 23.5342C111.628 23.5342 110.737 23.3099 109.932 22.8614C109.126 22.3914 108.49 21.7826 108.023 21.035C107.557 20.2874 107.323 19.4757 107.323 18.5999C107.323 16.9337 108.023 15.7269 109.423 14.9792C110.843 14.2102 113.059 13.8258 116.071 13.8258H118.234L118.297 13.4092C118.446 12.5334 118.287 11.8606 117.82 11.3906C117.375 10.9207 116.611 10.6857 115.53 10.6857C113.664 10.6857 111.861 11.2091 110.122 12.2557L109.136 8.98755C109.963 8.43217 111.013 7.98359 112.285 7.64182C113.579 7.30005 114.883 7.12916 116.198 7.12916C117.979 7.12916 119.379 7.46025 120.397 8.12244C121.414 8.78462 122.104 9.68177 122.464 10.8139C122.825 11.9246 122.888 13.1743 122.655 14.5627L121.319 23.1818H116.834L117.184 20.8748C116.675 21.7933 116.018 22.4662 115.212 22.8934C114.406 23.3206 113.537 23.5342 112.604 23.5342ZM114.226 20.2981C115.138 20.2981 115.901 20.0204 116.516 19.465C117.152 18.8883 117.544 18.1193 117.693 17.158L117.852 16.325H116.166C114.618 16.325 113.526 16.4745 112.89 16.7735C112.254 17.0512 111.936 17.5532 111.936 18.2795C111.936 18.9203 112.148 19.4223 112.572 19.7854C113.017 20.1272 113.568 20.2981 114.226 20.2981Z" fill="black"/>
<path d="M130.85 23.5342C128.899 23.5342 127.5 23.0002 126.651 21.9322C125.803 20.8428 125.538 19.2727 125.856 17.2221L128.464 0.592773H133.268L130.659 17.158C130.426 18.8028 131.041 19.6252 132.504 19.6252C132.716 19.6252 132.939 19.6145 133.172 19.5932C133.405 19.5718 133.639 19.5504 133.872 19.5291L133.236 23.2138C132.536 23.4274 131.741 23.5342 130.85 23.5342Z" fill="black"/>
<path d="M143.832 23.5342C142.199 23.5342 140.778 23.2352 139.57 22.6371C138.361 22.0176 137.428 21.1739 136.77 20.1058C136.113 19.0164 135.784 17.7455 135.784 16.2929C135.784 14.4986 136.155 12.9179 136.898 11.5508C137.661 10.1624 138.7 9.08367 140.015 8.31468C141.351 7.52433 142.867 7.12916 144.563 7.12916C146.302 7.12916 147.691 7.51365 148.73 8.28264C149.769 9.03027 150.49 10.0449 150.893 11.3265C151.296 12.5868 151.402 13.986 151.211 15.5239L151.084 16.357H140.238C140.259 17.4891 140.619 18.3649 141.319 18.9844C142.019 19.6038 143.015 19.9136 144.309 19.9136C145.2 19.9136 146.058 19.7854 146.885 19.5291C147.734 19.2727 148.487 18.8989 149.144 18.4076L150.194 21.5797C149.43 22.1778 148.487 22.6584 147.363 23.0216C146.239 23.3633 145.062 23.5342 143.832 23.5342ZM144.532 10.3333C143.387 10.3333 142.496 10.6857 141.86 11.3906C141.224 12.0742 140.799 12.8966 140.587 13.8578H147.522C147.585 12.8538 147.373 12.0208 146.885 11.3586C146.419 10.675 145.634 10.3333 144.532 10.3333Z" fill="black"/>
<path d="M152.796 23.1818L155.277 7.44957H159.985L159.54 10.141C160.027 9.26524 160.695 8.57101 161.544 8.05835C162.392 7.52434 163.399 7.2146 164.565 7.12916L166.029 7.03304L165.87 11.1023L162.816 11.4227C161.544 11.5508 160.621 11.9246 160.049 12.5441C159.497 13.1636 159.126 14.0821 158.935 15.2996L157.695 23.1818H152.796Z" fill="black"/>
<path d="M172.398 23.5342C171.04 23.5342 169.757 23.374 168.549 23.0536C167.34 22.7332 166.322 22.2739 165.495 21.6758L166.895 18.5678C167.658 19.0805 168.528 19.4864 169.503 19.7854C170.478 20.0631 171.433 20.2019 172.366 20.2019C173.278 20.2019 173.956 20.0417 174.401 19.7213C174.868 19.4009 175.101 18.9951 175.101 18.5038C175.101 17.7989 174.603 17.3503 173.606 17.158L170.712 16.6133C169.461 16.3997 168.496 15.9405 167.817 15.2356C167.139 14.5093 166.799 13.6015 166.799 12.5121C166.799 11.5508 167.075 10.6644 167.626 9.85266C168.199 9.01959 169.036 8.35741 170.139 7.86611C171.242 7.37481 172.599 7.12916 174.211 7.12916C175.207 7.12916 176.225 7.27869 177.264 7.57774C178.324 7.85543 179.236 8.28264 180 8.85938L178.664 11.9033C177.964 11.412 177.201 11.0489 176.374 10.8139C175.568 10.5576 174.762 10.4294 173.956 10.4294C173.002 10.4294 172.281 10.6003 171.793 10.9421C171.327 11.2838 171.093 11.7217 171.093 12.2557C171.093 12.5548 171.189 12.8218 171.38 13.0568C171.592 13.2704 171.931 13.4199 172.398 13.5053L175.26 14.05C178.017 14.5627 179.395 15.9298 179.395 18.1513C179.395 19.8815 178.749 21.2166 177.455 22.1564C176.183 23.075 174.497 23.5342 172.398 23.5342Z" fill="black"/>
</svg>
