<svg width="48" height="47" viewBox="0 0 48 47" fill="none" xmlns="http://www.w3.org/2000/svg">
<path d="M16.857 28.4493C16.4882 28.0789 16.1244 27.7029 15.7545 27.333C14.5417 26.117 13.3289 24.9018 12.1162 23.6875L8.14214 19.7152C7.11312 18.6931 6.07895 17.6764 5.03964 16.665C4.52697 16.1689 3.91783 15.8867 3.18245 15.8933C2.21829 15.9004 1.25304 15.8839 0.288882 15.8707C0.0898774 15.8679 -0.00163177 15.9467 2.20078e-05 16.1463C0.00994469 17.1198 -0.00383681 18.0939 0.0347514 19.068C0.0590069 19.6854 0.260768 20.2659 0.701776 20.7218C1.76938 21.8221 2.84434 22.9149 3.92665 24.0001C5.59146 25.6721 7.26618 27.3336 8.93209 29.0039C10.7472 30.8242 12.5601 32.6466 14.3708 34.4713C14.3971 34.4974 14.4303 34.5154 14.4665 34.523C14.5028 34.5307 14.5404 34.5277 14.575 34.5144C14.6096 34.5011 14.6395 34.4781 14.6613 34.4481C14.6831 34.4182 14.6957 34.3826 14.6977 34.3456C14.808 32.2905 15.432 30.4405 16.8614 28.9107C17.0086 28.7492 17.0097 28.6031 16.857 28.4493Z" fill="#F0001C"/>
<path d="M13.4361 14.1267C15.2939 14.3555 16.9063 15.0947 18.2321 16.4315C18.3424 16.5418 18.4493 16.6493 18.5629 16.7623C18.5972 16.7962 18.6408 16.8192 18.6881 16.8284C18.7355 16.8376 18.7845 16.8326 18.829 16.8141C18.8735 16.7955 18.9116 16.7642 18.9384 16.7241C18.9652 16.684 18.9795 16.6369 18.9796 16.5886V4.95703C18.9807 4.9242 18.972 4.89178 18.9546 4.86391C18.9372 4.83605 18.9119 4.814 18.8819 4.80057C18.8519 4.78715 18.8186 4.78296 18.7863 4.78853C18.7539 4.79411 18.7239 4.80921 18.7001 4.8319C18.2784 5.24093 17.8573 5.64997 17.4449 6.06837C16.5563 6.96858 15.6473 7.8506 14.7945 8.78388C13.5403 10.1554 13.0056 11.8158 13.0078 13.657C13.0084 14.0721 13.0199 14.0754 13.4361 14.1267Z" fill="#F0001C"/>
<path d="M27.7275 31.1943C26.7236 32.1993 25.7137 33.1987 24.7088 34.2031C23.9828 34.9286 23.2634 35.6612 22.5368 36.3866C21.6801 37.2411 20.8169 38.0884 19.9619 38.9445C19.087 39.8199 18.2243 40.7085 17.3456 41.579C16.6714 42.2476 16.2475 43.0012 16.2916 43.9946C16.3263 44.7664 16.285 45.5431 16.2784 46.3187C16.2775 46.4555 16.2929 46.5918 16.3241 46.725C16.3298 46.7494 16.3409 46.7722 16.3566 46.7917C16.3715 46.8102 16.3902 46.8253 16.4114 46.8359C16.4326 46.8466 16.4558 46.8526 16.4796 46.8534L17.4542 46.8848L18.1708 46.8926H19.3808C19.527 46.8881 19.6716 46.8623 19.8103 46.8159L20.501 46.5844L20.4911 46.5877H20.496L20.721 46.4775L21.1179 46.193H21.1372L21.1449 46.1754C21.1924 46.1516 21.2372 46.1226 21.2783 46.0888L21.291 46.0784C21.7628 45.6208 22.2358 45.1644 22.7022 44.7002C23.6967 43.7112 24.6889 42.719 25.679 41.7234C26.2413 41.1589 26.7969 40.5872 27.3554 40.0189H27.3719L27.3774 40.0029C27.497 39.8927 27.6216 39.7896 27.7357 39.6722C28.42 38.9794 29.1029 38.2852 29.7842 37.5895H29.7986V37.5757L29.857 37.5206L29.8614 37.5167C29.9457 37.4285 30.0306 37.3409 30.1155 37.2527L30.1337 37.2433L30.7952 36.5785L31.4446 35.917L31.5709 35.8067L32.5394 34.8326H32.556V34.8161L32.8239 34.5405L32.8917 34.4853L33.4893 33.879L33.5504 33.8238L34.2957 33.0829L35.2963 32.0785L35.3729 32.0069L35.6254 31.7406H35.6408L35.6458 31.7257L36.9572 30.4027L37.0272 30.3432L37.0752 30.298L37.0813 30.2914L38.0504 29.3178L38.1292 29.2467C38.2147 29.1591 38.2995 29.0709 38.3844 28.9832L38.3999 28.9733L38.6011 28.7616L38.6364 28.7285C38.7273 28.653 38.8243 28.5836 38.907 28.5003C39.3023 28.1034 39.6904 27.7004 40.0856 27.3046C41.194 26.1944 42.3037 25.0862 43.4147 23.98C44.1743 23.222 44.9428 22.4728 45.6975 21.7099C45.9979 21.4061 46.2719 21.0754 46.558 20.7573L46.574 20.7512V20.7347L46.8463 20.3758C47.1588 20.0091 47.3321 19.544 47.3358 19.0622C47.3612 18.1041 47.3402 17.1394 47.3474 16.1747C47.3474 15.9448 47.2526 15.8682 47.0332 15.8698C46.0227 15.8781 45.0111 15.8527 44.0012 15.8946C43.6484 15.9095 43.2763 16.033 42.9582 16.1945C42.1413 16.6102 41.5911 17.3489 40.9467 17.9707C40.1953 18.6961 39.4732 19.4519 38.7345 20.1912C37.7499 21.1763 36.7599 22.1564 35.7748 23.141M42.5972 17.237C42.6247 17.2039 42.6523 17.1686 42.6771 17.1344C42.6501 17.1659 42.622 17.2011 42.5972 17.2342V17.237ZM41.9809 17.7882C41.9702 17.8025 41.9569 17.8147 41.9417 17.8241C41.9561 17.8146 41.9684 17.8024 41.9781 17.7882H41.9809ZM46.6826 20.3461L46.6274 20.3119C46.6441 20.3248 46.6616 20.3365 46.6798 20.3472L46.6826 20.3461ZM41.4417 18.0043C41.4605 17.9679 41.4787 17.931 41.4969 17.8941C41.4787 17.9304 41.4605 17.9674 41.4417 18.0043C41.3761 18.0501 41.3034 18.0892 41.24 18.1372C41.3006 18.0903 41.3734 18.0512 41.439 18.0054L41.4417 18.0043ZM27.6051 32.0063C27.7501 31.8013 27.8719 31.5741 28.0461 31.3955C27.8741 31.5741 27.7523 31.8013 27.6051 32.0074C27.695 32.0168 27.7843 32.0256 27.8703 32.0333L27.6056 32.0085C27.5389 32.0267 27.4568 32.0289 27.4022 32.0637C27.4529 32.0306 27.5351 32.0284 27.6018 32.0085L27.6051 32.0063ZM26.2269 33.2742C26.2457 33.2191 26.2639 33.164 26.2821 33.1088C26.2633 33.164 26.2451 33.2191 26.2269 33.2742C26.185 33.3023 26.1415 33.3294 26.0979 33.3536C26.1382 33.3305 26.1817 33.3051 26.2231 33.277L26.2269 33.2742ZM23.1399 36.3613C23.0765 36.4021 23.0092 36.439 22.9442 36.4782C23.0054 36.4423 23.0726 36.4054 23.136 36.3646L23.1399 36.3613ZM16.7453 42.9764C16.7728 42.9213 16.8004 42.8662 16.8274 42.811C16.7998 42.8667 16.7717 42.9218 16.7447 42.977L16.7453 42.9764ZM28.873 38.2907L28.6189 38.5983L28.8719 38.2946L28.873 38.2907ZM33.4893 33.6954C33.4979 33.6966 33.5064 33.6987 33.5146 33.7015C33.5062 33.6996 33.4978 33.6983 33.4893 33.6976V33.6954ZM33.9975 33.2202C33.9821 33.2235 33.9666 33.2263 33.9507 33.2285C33.9347 33.2307 33.9038 33.2367 33.8817 33.2423C33.9038 33.2367 33.9275 33.2329 33.9507 33.2285C33.9738 33.2241 33.9815 33.2241 33.997 33.2208L33.9975 33.2202ZM35.3757 31.6618C35.4055 31.6354 35.4371 31.6113 35.4705 31.5896C35.4374 31.6122 35.4059 31.6371 35.3762 31.664L35.3757 31.6618ZM40.5575 26.6597C40.5757 26.6415 40.5939 26.6227 40.6126 26.6045C40.5944 26.6244 40.5763 26.6431 40.5575 26.6597ZM42.2664 24.9507C42.2846 24.932 42.3033 24.9138 42.3215 24.8956C42.3039 24.9155 42.2852 24.9337 42.2664 24.9507ZM46.9847 19.5484C47.0177 19.4034 47.1633 19.2959 47.2256 19.1625C47.1638 19.2976 47.0183 19.4051 46.9852 19.5484H46.9847Z" fill="#F0001C"/>
<path d="M47.4213 22.8057L47.4043 22.7059C47.4023 22.6948 47.3981 22.6841 47.392 22.6747C47.3858 22.6652 47.3778 22.6571 47.3684 22.6508C47.3519 22.6388 47.3317 22.6333 47.3114 22.6351C47.2912 22.6369 47.2723 22.646 47.2582 22.6607C43.2542 26.6816 39.2428 30.6957 35.2242 34.703C31.2782 38.6483 27.334 42.5943 23.3423 46.5903C23.317 46.6155 23.2997 46.6475 23.2927 46.6824C23.2856 46.7174 23.289 46.7536 23.3025 46.7866C23.316 46.8195 23.339 46.8478 23.3686 46.8677C23.3981 46.8876 23.4329 46.8983 23.4685 46.8985C25.0854 46.9051 26.7022 46.9266 28.3196 46.9046C28.9238 46.8952 29.5258 46.8312 30.1184 46.7133C31.3447 46.4767 32.4739 45.8836 33.3648 45.0082C35.2242 43.1946 37.051 41.3479 38.8878 39.5111C41.0427 37.3567 43.2036 35.2074 45.3447 33.0393C46.6722 31.6947 47.3789 30.0625 47.4131 28.1672C47.4423 26.3905 47.4219 24.6138 47.4235 22.8365C47.4237 22.8262 47.4229 22.8159 47.4213 22.8057Z" fill="#F28500"/>
<path d="M40.384 15.8804C38.5466 15.8842 36.7093 15.8837 34.8714 15.8958C33.1746 15.9068 31.7077 16.516 30.5037 17.699C28.453 19.7138 26.4244 21.7529 24.3947 23.7876C22.3908 25.7959 20.3638 27.7843 18.4036 29.835C17.2558 31.0362 16.5916 32.5284 16.5111 34.1949C16.4256 36.019 16.473 37.8497 16.4648 39.6777C16.465 39.7221 16.4676 39.7665 16.4725 39.8106C16.4753 39.8386 16.4859 39.8653 16.5032 39.8875C16.5205 39.9097 16.5438 39.9265 16.5703 39.936C16.5968 39.9455 16.6254 39.9474 16.6529 39.9413C16.6804 39.9352 16.7055 39.9214 16.7255 39.9015L40.4876 16.1317C40.5082 16.1112 40.5222 16.085 40.528 16.0565C40.5337 16.0279 40.5308 15.9984 40.5197 15.9715C40.5086 15.9446 40.4898 15.9215 40.4656 15.9053C40.4415 15.8891 40.4131 15.8804 40.384 15.8804Z" fill="#F28500"/>
<path d="M14.3599 37.142C14.1286 36.78 13.8637 36.4406 13.5689 36.1282C11.78 34.319 9.97629 32.5257 8.17863 30.7259C6.89235 29.4396 5.60829 28.1518 4.32642 26.8626C2.99311 25.5238 1.65979 24.1835 0.326477 22.8417C0.324731 22.8396 0.322688 22.8378 0.320414 22.8362C0.26031 22.785 0.197564 22.737 0.132434 22.6923C0.121155 22.6845 0.108153 22.6796 0.0945387 22.6779C0.0809248 22.6762 0.0671052 22.6778 0.054263 22.6827C0.0414208 22.6875 0.0299385 22.6954 0.0207991 22.7056C0.0116598 22.7158 0.00513559 22.7281 0.00178508 22.7414C0.000707057 22.7489 0.000707057 22.7565 0.00178508 22.764C0.00950272 24.5242 0.0243868 26.2844 0.0260405 28.0445C0.0260405 30.0076 0.729449 31.6801 2.10319 33.0693C3.41684 34.3989 4.74924 35.7181 6.07447 37.045C7.62755 38.5962 9.17972 40.1478 10.731 41.6998C11.9233 42.8971 13.1074 44.1022 14.2971 45.3017C14.3341 45.3384 14.3733 45.3729 14.4145 45.4048C14.4377 45.4236 14.4658 45.4354 14.4954 45.4389C14.5251 45.4424 14.5551 45.4373 14.582 45.4244C14.6089 45.4115 14.6316 45.3911 14.6474 45.3658C14.6633 45.3405 14.6716 45.3112 14.6714 45.2813C14.6615 42.966 14.6477 40.6507 14.6422 38.3355C14.6411 37.9082 14.5953 37.4948 14.3599 37.142Z" fill="#F28500"/>
<path d="M20.7012 7.84193C20.709 8.86948 20.7128 9.9053 20.7139 10.9334C20.7139 12.1412 20.6886 13.3275 20.7012 14.5359C20.7084 15.215 20.7172 15.9085 20.7012 16.5871C20.688 16.8869 20.693 17.1871 20.7161 17.4862C20.7277 17.6075 20.7327 17.7288 20.736 17.8506C20.7531 18.4939 21.0811 19.0634 21.5287 19.538C22.1836 20.2332 22.8517 20.9134 23.5286 21.5887C23.6085 21.6664 23.7002 21.7308 23.8004 21.7794C23.8216 21.7903 23.8453 21.7953 23.8691 21.7939C23.8929 21.7924 23.9158 21.7846 23.9355 21.7712C23.9416 21.767 23.9466 21.7613 23.9498 21.7546L23.9961 21.7083L24.119 21.5904C24.1698 21.5408 24.1439 21.5352 24.1902 21.4829C24.3373 21.3103 25.1212 20.5799 25.2403 20.4608C26.6499 18.9851 25.4057 20.2199 25.8891 19.7536C25.8998 19.7435 25.9099 19.7328 25.9195 19.7216C25.9371 19.7001 26.0799 19.4647 26.0937 19.4399C26.2012 19.2459 26.1697 19.2541 26.3004 19.0766C26.5628 18.7211 26.7375 18.4449 26.7375 18.0292C26.7414 13.5271 26.6118 8.89594 26.6118 4.3938C26.6118 4.06304 26.6427 3.73229 26.5931 3.4098C26.4994 2.799 26.1576 2.30728 25.732 1.87454C25.1527 1.2869 24.5639 0.707522 23.979 0.123737C23.8092 -0.0460511 23.6648 -0.041641 23.4901 0.140275C22.8886 0.759891 22.1593 1.34698 21.5606 1.96825C21.2773 2.26152 20.9311 2.62977 20.822 3.03494C20.6423 3.70197 20.6825 4.37781 20.6891 5.05862C20.6974 5.98694 20.6946 6.91416 20.7012 7.84193Z" fill="#F28500"/>
<path d="M8.16349 17.2926C11.4619 20.5921 14.7588 23.8931 18.0542 27.1955C18.2747 27.416 18.3227 27.416 18.5404 27.19C19.1027 26.6111 19.6611 26.0274 20.2322 25.4568C20.9136 24.7765 21.6019 24.1025 22.2973 23.4348C22.4737 23.265 22.4974 23.1349 22.3055 22.9601C22.0481 22.7253 21.8094 22.469 21.5646 22.2231C20.0371 20.7011 18.5327 19.1537 16.9737 17.6664C15.9335 16.6741 14.6733 16.0451 13.2213 15.9244C12.1067 15.8318 10.9848 15.8764 9.86633 15.8296C8.95731 15.8296 8.04717 15.8296 7.1387 15.8346C7.12989 15.834 7.12105 15.834 7.11224 15.8346C7.07892 15.8405 7.04769 15.8549 7.02153 15.8764C6.99537 15.8979 6.97515 15.9257 6.96282 15.9573C6.95049 15.9888 6.94645 16.0229 6.95108 16.0565C6.95572 16.09 6.96888 16.1218 6.98931 16.1488C6.99742 16.1598 7.00645 16.1701 7.01632 16.1796C7.39338 16.5573 7.78698 16.9161 8.16349 17.2926Z" fill="#F28500"/>
<path d="M34.5249 13.4509C34.4968 11.6102 33.9356 9.95867 32.6589 8.60753C31.7912 7.68858 30.8679 6.82145 29.9649 5.93557C29.5459 5.52378 29.1182 5.12191 28.6898 4.71949C28.6656 4.69777 28.6355 4.68368 28.6033 4.67898C28.5711 4.67428 28.5383 4.67918 28.5088 4.69307C28.4794 4.70696 28.4548 4.72921 28.4379 4.75705C28.4211 4.78489 28.4128 4.81708 28.4142 4.84959L28.6038 16.4812C28.605 16.5293 28.6203 16.576 28.6479 16.6154C28.6754 16.6549 28.714 16.6853 28.7588 16.703C28.8035 16.7206 28.8525 16.7247 28.8996 16.7146C28.9466 16.7046 28.9897 16.6809 29.0234 16.6466C29.1364 16.5308 29.2439 16.4211 29.3502 16.3103C30.649 14.9498 32.2477 14.1846 34.1038 13.9255C34.5189 13.8677 34.5304 13.8638 34.5249 13.4509Z" fill="#F0001C"/>
</svg>
