<svg width="49" height="48" viewBox="0 0 49 48" fill="none" xmlns="http://www.w3.org/2000/svg">
<g clip-path="url(#clip0_6326_242)">
<path d="M28.185 31.9166C27.1646 32.9448 26.138 33.9673 25.1164 34.995C24.3785 35.7372 23.6472 36.4868 22.9086 37.229C22.0378 38.1033 21.1603 38.9702 20.2912 39.8461C19.4019 40.7417 18.525 41.6509 17.6318 42.5415C16.9464 43.2257 16.5155 43.9967 16.5604 45.013C16.5957 45.8026 16.5536 46.5973 16.5469 47.3909C16.5461 47.5308 16.5617 47.6703 16.5934 47.8066C16.5992 47.8316 16.6105 47.8549 16.6265 47.8748C16.6416 47.8938 16.6606 47.9092 16.6821 47.9201C16.7037 47.931 16.7273 47.9371 16.7514 47.938L17.7421 47.9701L18.4706 47.978H19.7006C19.8491 47.9735 19.9962 47.9471 20.1371 47.8996L20.8392 47.6628L20.8292 47.6661H20.8342L21.0628 47.5533L21.4663 47.2623H21.4859L21.4937 47.2443C21.5421 47.22 21.5876 47.1903 21.6293 47.1557L21.6422 47.145C22.1219 46.6769 22.6027 46.2099 23.0767 45.735C24.0876 44.7231 25.0963 43.7079 26.1027 42.6893C26.6742 42.1117 27.2391 41.5268 27.8067 40.9453H27.8235L27.8291 40.929C27.9507 40.8162 28.0774 40.7107 28.1934 40.5906C28.889 39.8818 29.5831 39.1715 30.2757 38.4597H30.2902V38.4456L30.3496 38.3892L30.3541 38.3853C30.4398 38.295 30.5261 38.2054 30.6124 38.1151L30.6309 38.1055L31.3034 37.4253L31.9635 36.7485L32.0918 36.6357L33.0763 35.6391H33.0931V35.6222L33.3655 35.3402L33.4344 35.2838L34.0418 34.6633L34.104 34.6069L34.8616 33.8489L35.8787 32.8213L35.9566 32.7479L36.2132 32.4755H36.2289L36.2339 32.4603L37.567 31.1067L37.6382 31.0457L37.6869 30.9995L37.6931 30.9927L38.6782 29.9967L38.7583 29.9239C38.8452 29.8342 38.9315 29.744 39.0178 29.6543L39.0335 29.6442L39.238 29.4276L39.2739 29.3937C39.3663 29.3165 39.465 29.2454 39.549 29.1602C39.9508 28.7541 40.3453 28.3418 40.747 27.9369C41.8737 26.801 43.0017 25.6671 44.131 24.5353C44.9032 23.7598 45.6844 22.9933 46.4515 22.2127C46.7569 21.9019 47.0354 21.5635 47.3262 21.2381L47.3425 21.2319V21.215L47.6193 20.8478C47.9369 20.4725 48.1131 19.9967 48.1169 19.5037C48.1426 18.5235 48.1213 17.5364 48.1286 16.5494C48.1286 16.3142 48.0323 16.2358 47.8092 16.2375C46.7821 16.246 45.7538 16.22 44.7273 16.2629C44.3686 16.2781 43.9904 16.4045 43.6671 16.5697C42.8366 16.995 42.2774 17.7508 41.6223 18.387C40.8586 19.1292 40.1245 19.9025 39.3736 20.6588C38.3728 21.6667 37.3664 22.6695 36.3651 23.6769M43.3 17.6363C43.3281 17.6024 43.3561 17.5663 43.3813 17.5314C43.3538 17.5635 43.3253 17.5996 43.3 17.6335V17.6363ZM42.6736 18.2003C42.6627 18.2149 42.6492 18.2273 42.6338 18.237C42.6483 18.2273 42.6609 18.2148 42.6708 18.2003H42.6736ZM47.4528 20.8173L47.3968 20.7824C47.4138 20.7955 47.4316 20.8076 47.45 20.8185L47.4528 20.8173ZM42.1255 18.4214C42.1446 18.3842 42.1631 18.3464 42.1816 18.3086C42.1631 18.3458 42.1446 18.3836 42.1255 18.4214C42.0588 18.4682 41.9849 18.5082 41.9204 18.5573C41.9821 18.5094 42.056 18.4693 42.1227 18.4225L42.1255 18.4214ZM28.0606 32.7474C28.2079 32.5376 28.3318 32.3052 28.5088 32.1224C28.334 32.3052 28.2102 32.5376 28.0606 32.7485C28.1519 32.7581 28.2427 32.7671 28.3301 32.775L28.0611 32.7496C27.9933 32.7682 27.9098 32.7705 27.8544 32.806C27.9059 32.7722 27.9894 32.7699 28.0572 32.7496L28.0606 32.7474ZM26.6597 34.0446C26.6787 33.9882 26.6972 33.9318 26.7157 33.8754C26.6967 33.9318 26.6782 33.9882 26.6597 34.0446C26.6171 34.0734 26.5728 34.101 26.5285 34.1258C26.5695 34.1021 26.6137 34.0762 26.6557 34.0474L26.6597 34.0446ZM23.5217 37.2031C23.4572 37.2448 23.3889 37.2826 23.3227 37.3227C23.3849 37.286 23.4533 37.2482 23.5177 37.2065L23.5217 37.2031ZM17.0215 43.9713C17.0495 43.9149 17.0776 43.8585 17.105 43.8021C17.077 43.859 17.0484 43.9154 17.021 43.9718L17.0215 43.9713ZM29.3494 39.1771L29.0911 39.4919L29.3483 39.1811L29.3494 39.1771ZM34.0418 34.4755C34.0506 34.4768 34.0592 34.4789 34.0676 34.4817C34.0591 34.4799 34.0505 34.4785 34.0418 34.4778V34.4755ZM34.5585 33.9893C34.5428 33.9927 34.5271 33.9955 34.5108 33.9978C34.4946 34.0001 34.4632 34.0063 34.4408 34.0119C34.4632 34.0063 34.4873 34.0023 34.5108 33.9978C34.5344 33.9933 34.5422 33.9933 34.5579 33.9899L34.5585 33.9893ZM35.9594 32.3949C35.9896 32.3679 36.0219 32.3432 36.0557 32.321C36.0221 32.3441 35.9901 32.3696 35.9599 32.3971L35.9594 32.3949ZM41.2267 27.277C41.2452 27.2584 41.2637 27.2392 41.2827 27.2206C41.2643 27.2409 41.2458 27.2601 41.2267 27.277ZM42.9638 25.5285C42.9823 25.5094 43.0014 25.4908 43.0199 25.4721C43.0019 25.4924 42.9829 25.5111 42.9638 25.5285ZM47.7599 20.0012C47.7935 19.8529 47.9415 19.7429 48.0048 19.6064C47.942 19.7446 47.7941 19.8545 47.7605 20.0012H47.7599Z" fill="#006A6A"/>
<path d="M48.2043 23.334L48.187 23.2319C48.185 23.2206 48.1807 23.2097 48.1745 23.2C48.1682 23.1903 48.1601 23.182 48.1505 23.1755C48.1338 23.1634 48.1132 23.1577 48.0926 23.1595C48.072 23.1614 48.0528 23.1707 48.0385 23.1857C43.9684 27.2996 39.8909 31.4066 35.8059 35.5066C31.7948 39.5433 27.7855 43.5805 23.7279 47.669C23.7022 47.6947 23.6847 47.7275 23.6775 47.7633C23.6703 47.799 23.6738 47.8361 23.6875 47.8698C23.7012 47.9035 23.7246 47.9324 23.7546 47.9528C23.7847 47.9732 23.82 47.9842 23.8563 47.9843C25.4998 47.9911 27.1433 48.0131 28.7874 47.9905C29.4015 47.981 30.0135 47.9155 30.6158 47.7948C31.8624 47.5527 33.0103 46.9459 33.9158 46.0503C35.8059 44.1947 37.6629 42.3053 39.53 40.426C41.7204 38.2218 43.917 36.0227 46.0935 33.8044C47.4428 32.4288 48.1612 30.7587 48.1959 28.8196C48.2256 27.0018 48.2049 25.184 48.2066 23.3656C48.2067 23.355 48.2059 23.3445 48.2043 23.334Z" fill="#04A3A3"/>
<path d="M41.0512 16.248C39.1836 16.252 37.3159 16.2514 35.4477 16.2638C33.7229 16.2751 32.2318 16.8984 31.0079 18.1087C28.9234 20.1702 26.8613 22.2565 24.7981 24.3383C22.7612 26.393 20.7007 28.4274 18.7081 30.5255C17.5414 31.7545 16.8662 33.2813 16.7844 34.9863C16.6975 36.8527 16.7457 38.7258 16.7373 40.596C16.7376 40.6414 16.7402 40.6868 16.7452 40.732C16.748 40.7606 16.7588 40.7879 16.7764 40.8106C16.794 40.8333 16.8176 40.8506 16.8446 40.8603C16.8715 40.87 16.9006 40.8719 16.9285 40.8657C16.9565 40.8594 16.9821 40.8453 17.0024 40.825L41.1566 16.5052C41.1775 16.4842 41.1918 16.4574 41.1976 16.4282C41.2034 16.399 41.2005 16.3688 41.1892 16.3412C41.1779 16.3137 41.1588 16.2902 41.1343 16.2736C41.1097 16.257 41.0808 16.2481 41.0512 16.248Z" fill="#04A3A3"/>
<path d="M17.1352 29.1081C16.7603 28.729 16.3905 28.3444 16.0145 27.9659C14.7817 26.7217 13.5489 25.4784 12.3161 24.2361L8.2765 20.1718C7.2305 19.1261 6.17927 18.0859 5.12281 17.0511C4.60167 16.5435 3.98248 16.2547 3.23496 16.2615C2.2549 16.2688 1.27371 16.2519 0.293649 16.2384C0.0913606 16.2355 -0.0016587 16.3162 2.23709e-05 16.5204C0.0101088 17.5164 -0.00390013 18.513 0.0353249 19.5096C0.0599806 20.1413 0.265071 20.7352 0.713357 21.2017C1.79858 22.3275 2.89128 23.4455 3.99145 24.5559C5.68372 26.2665 7.38609 27.9665 9.07949 29.6755C10.9246 31.5378 12.7674 33.4025 14.608 35.2694C14.6346 35.2961 14.6684 35.3145 14.7053 35.3223C14.7421 35.3301 14.7804 35.327 14.8155 35.3134C14.8507 35.2998 14.8811 35.2763 14.9033 35.2457C14.9254 35.215 14.9382 35.1786 14.9403 35.1408C15.0523 33.0381 15.6867 31.1453 17.1397 29.5801C17.2893 29.4149 17.2904 29.2654 17.1352 29.1081Z" fill="#006A6A"/>
<path d="M14.5969 38.0016C14.3617 37.6312 14.0925 37.284 13.7927 36.9643C11.9744 35.1132 10.1409 33.2785 8.31358 31.437C7.00608 30.121 5.70082 28.8034 4.3978 27.4844C3.04248 26.1146 1.68717 24.7433 0.331849 23.3704C0.330073 23.3683 0.327997 23.3664 0.325685 23.3648C0.264589 23.3124 0.200808 23.2633 0.134603 23.2176C0.123139 23.2096 0.109921 23.2045 0.0960827 23.2028C0.0822441 23.2011 0.0681964 23.2028 0.0551423 23.2077C0.0420882 23.2126 0.0304164 23.2207 0.0211263 23.2311C0.0118361 23.2416 0.00520422 23.2542 0.00179842 23.2678C0.000702609 23.2755 0.000702609 23.2832 0.00179842 23.2909C0.00964342 25.0918 0.0247731 26.8927 0.0264541 28.6936C0.0264541 30.7021 0.74147 32.4133 2.13788 33.8346C3.47321 35.195 4.82759 36.5447 6.17469 37.9023C7.7534 39.4894 9.33118 41.077 10.908 42.6648C12.1201 43.8899 13.3237 45.1228 14.533 46.3501C14.5706 46.3877 14.6105 46.4229 14.6523 46.4556C14.6759 46.4748 14.7044 46.4869 14.7346 46.4905C14.7647 46.494 14.7953 46.4889 14.8226 46.4756C14.85 46.4624 14.8731 46.4416 14.8891 46.4157C14.9052 46.3898 14.9136 46.3598 14.9135 46.3292C14.9034 43.9604 14.8894 41.5915 14.8838 39.2227C14.8826 38.7855 14.8361 38.3625 14.5969 38.0016Z" fill="#04A3A3"/>
<path d="M8.29779 17.6932C11.6506 21.069 15.0019 24.4463 18.3517 27.8252C18.5759 28.0508 18.6246 28.0508 18.8459 27.8195C19.4175 27.2273 19.9852 26.63 20.5657 26.0463C21.2583 25.3503 21.958 24.6607 22.6648 23.9774C22.8441 23.8037 22.8682 23.6706 22.6732 23.4918C22.4115 23.2516 22.1689 22.9893 21.9201 22.7377C20.3673 21.1805 18.8381 19.5973 17.2534 18.0756C16.196 17.0604 14.915 16.4168 13.4391 16.2933C12.306 16.1985 11.1657 16.2442 10.0287 16.1963C9.1047 16.1963 8.17955 16.1963 7.25608 16.2014C7.24713 16.2008 7.23814 16.2008 7.22919 16.2014C7.19532 16.2075 7.16357 16.2222 7.13698 16.2442C7.11039 16.2662 7.08984 16.2947 7.0773 16.3269C7.06477 16.3592 7.06066 16.3941 7.06537 16.4284C7.07009 16.4627 7.08346 16.4952 7.10423 16.5229C7.11247 16.5341 7.12166 16.5447 7.13168 16.5544C7.51497 16.9408 7.91506 17.308 8.29779 17.6932Z" fill="#04A3A3"/>
<path d="M13.6581 14.4541C15.5465 14.6882 17.1855 15.4446 18.5332 16.8123C18.6452 16.9251 18.7539 17.0351 18.8694 17.1507C18.9043 17.1854 18.9486 17.2089 18.9967 17.2183C19.0448 17.2278 19.0946 17.2227 19.1399 17.2037C19.1852 17.1847 19.2238 17.1527 19.2511 17.1117C19.2783 17.0706 19.2929 17.0224 19.293 16.973V5.07232C19.2941 5.03872 19.2853 5.00555 19.2676 4.97704C19.2499 4.94853 19.2242 4.92597 19.1937 4.91223C19.1632 4.8985 19.1294 4.89421 19.0965 4.89992C19.0635 4.90563 19.0331 4.92107 19.0089 4.94428C18.5802 5.36278 18.1521 5.78128 17.733 6.20937C16.8297 7.13041 15.9057 8.03283 15.0388 8.98771C13.764 10.391 13.2204 12.0898 13.2227 13.9736C13.2232 14.3983 13.235 14.4017 13.6581 14.4541Z" fill="#006A6A"/>
<path d="M21.0424 8.02338C21.0502 9.0747 21.0542 10.1345 21.0553 11.1864C21.0553 12.4221 21.0295 13.6359 21.0424 14.8722C21.0497 15.5671 21.0586 16.2766 21.0424 16.9709C21.029 17.2776 21.034 17.5848 21.0575 17.8908C21.0693 18.0149 21.0743 18.139 21.0777 18.2636C21.0951 18.9218 21.4285 19.5045 21.8835 19.9901C22.5492 20.7013 23.2283 21.3973 23.9165 22.0882C23.9976 22.1677 24.0909 22.2336 24.1927 22.2834C24.2142 22.2945 24.2384 22.2996 24.2625 22.2981C24.2867 22.2967 24.31 22.2886 24.33 22.2749C24.3363 22.2707 24.3413 22.2648 24.3446 22.258L24.3916 22.2106L24.5166 22.0899C24.5682 22.0392 24.5418 22.0335 24.5889 21.9799C24.7385 21.8034 25.5353 21.0561 25.6564 20.9343C27.0892 19.4244 25.8245 20.6878 26.3159 20.2106C26.3268 20.2003 26.337 20.1894 26.3467 20.1779C26.3647 20.1559 26.5098 19.9151 26.5238 19.8897C26.6331 19.6912 26.6011 19.6996 26.7339 19.518C27.0007 19.1542 27.1783 18.8716 27.1783 18.4464C27.1822 13.8401 27.0505 9.10178 27.0505 4.49546C27.0505 4.15705 27.0819 3.81864 27.0315 3.4887C26.9362 2.86377 26.5888 2.36066 26.1562 1.91791C25.5673 1.31667 24.9688 0.723892 24.3743 0.1266C24.2017 -0.0471166 24.0549 -0.0426045 23.8772 0.143521C23.2659 0.777474 22.5245 1.37815 21.916 2.0138C21.628 2.31385 21.2761 2.69061 21.1651 3.10517C20.9824 3.78762 21.0233 4.47911 21.0301 5.17567C21.0385 6.12547 21.0357 7.07414 21.0424 8.02338Z" fill="#04A3A3"/>
<path d="M35.0945 13.7618C35.0659 11.8786 34.4955 10.1888 33.1977 8.80638C32.3157 7.86616 31.3771 6.97897 30.4592 6.0726C30.0334 5.65128 29.5985 5.24011 29.1631 4.82838C29.1385 4.80616 29.1079 4.79174 29.0752 4.78693C29.0425 4.78212 29.0091 4.78714 28.9792 4.80134C28.9493 4.81555 28.9242 4.83832 28.9071 4.86681C28.89 4.89529 28.8816 4.92823 28.883 4.96149L29.0757 16.8622C29.0769 16.9114 29.0925 16.9592 29.1205 16.9996C29.1485 17.0399 29.1877 17.0711 29.2332 17.0891C29.2787 17.1072 29.3285 17.1113 29.3763 17.1011C29.4242 17.0908 29.4679 17.0666 29.5022 17.0314C29.617 16.913 29.7263 16.8007 29.8344 16.6874C31.1546 15.2954 32.7797 14.5125 34.6664 14.2474C35.0884 14.1882 35.1001 14.1843 35.0945 13.7618Z" fill="#006A6A"/>
</g>
<defs>
<clipPath id="clip0_6326_242">
<rect width="48.2119" height="48" fill="white"/>
</clipPath>
</defs>
</svg>
