<svg width="48" height="47" viewBox="0 0 48 47" fill="none" xmlns="http://www.w3.org/2000/svg">
<g clip-path="url(#clip0_6336_23735)">
<path d="M27.7156 31.2511C26.7122 32.2578 25.7027 33.2591 24.6982 34.2653C23.9725 34.9921 23.2535 35.7261 22.5272 36.4528C21.6709 37.3089 20.808 38.1577 19.9534 39.0154C19.079 39.8924 18.2166 40.7826 17.3383 41.6546C16.6644 42.3245 16.2407 43.0795 16.2847 44.0747C16.3195 44.8478 16.2781 45.626 16.2715 46.403C16.2707 46.54 16.2861 46.6766 16.3172 46.81C16.3229 46.8345 16.334 46.8573 16.3498 46.8768C16.3646 46.8954 16.3833 46.9105 16.4045 46.9212C16.4257 46.9319 16.4489 46.9378 16.4726 46.9387L17.4468 46.9702L18.1632 46.9779H19.3726C19.5187 46.9735 19.6633 46.9476 19.8019 46.9011L20.4923 46.6692L20.4824 46.6725H20.4874L20.7122 46.5621L21.1089 46.2771H21.1282L21.1359 46.2594C21.1835 46.2356 21.2282 46.2065 21.2692 46.1727L21.2819 46.1622C21.7536 45.7038 22.2264 45.2466 22.6925 44.7816C23.6866 43.7908 24.6784 42.7967 25.668 41.7993C26.2301 41.2338 26.7855 40.6611 27.3437 40.0917H27.3602L27.3657 40.0757C27.4853 39.9652 27.6098 39.862 27.7239 39.7443C28.4079 39.0503 29.0904 38.3548 29.7715 37.6579H29.7858V37.6441L29.8442 37.5889L29.8486 37.585C29.9329 37.4966 30.0178 37.4088 30.1026 37.3205L30.1208 37.3111L30.782 36.645L31.4311 35.9823L31.5573 35.8719L32.5254 34.896H32.542V34.8794L32.8098 34.6033L32.8775 34.5481L33.4748 33.9406L33.536 33.8854L34.281 33.1431L35.2811 32.1369L35.3577 32.0651L35.61 31.7984H35.6255L35.6304 31.7834L36.9413 30.458L37.0113 30.3984L37.0592 30.3531L37.0653 30.3465L38.034 29.3712L38.1128 29.2999C38.1982 29.2121 38.283 29.1237 38.3679 29.0359L38.3833 29.026L38.5844 28.8139L38.6197 28.7808C38.7106 28.7051 38.8076 28.6355 38.8902 28.5521C39.2853 28.1545 39.6732 27.7508 40.0683 27.3543C41.1762 26.242 42.2854 25.1318 43.3959 24.0236C44.1552 23.2642 44.9233 22.5137 45.6777 21.7493C45.978 21.445 46.2518 21.1137 46.5378 20.795L46.5538 20.789V20.7724L46.826 20.4129C47.1383 20.0454 47.3116 19.5795 47.3153 19.0968C47.3407 18.137 47.3197 17.1705 47.3269 16.204C47.3269 15.9738 47.2321 15.897 47.0128 15.8986C46.0028 15.9069 44.9917 15.8815 43.9822 15.9235C43.6296 15.9384 43.2576 16.0621 42.9397 16.2239C42.1231 16.6403 41.5732 17.3804 40.929 18.0033C40.178 18.7301 39.4561 19.4873 38.7178 20.2279C37.7337 21.2147 36.744 22.1967 35.7594 23.183M42.5788 17.2683C42.6063 17.2351 42.6339 17.1998 42.6587 17.1655C42.6317 17.197 42.6036 17.2324 42.5788 17.2655V17.2683ZM41.9627 17.8205C41.952 17.8348 41.9388 17.847 41.9236 17.8564C41.9379 17.8469 41.9503 17.8347 41.96 17.8205H41.9627ZM46.6624 20.383L46.6072 20.3488C46.6239 20.3617 46.6414 20.3735 46.6596 20.3841L46.6624 20.383ZM41.4238 18.037C41.4426 18.0006 41.4607 17.9636 41.4789 17.9266C41.4607 17.963 41.4426 18 41.4238 18.037C41.3583 18.0829 41.2855 18.1221 41.2222 18.1701C41.2828 18.1232 41.3555 18.084 41.4211 18.0381L41.4238 18.037ZM27.5933 32.0645C27.7382 31.8591 27.86 31.6316 28.0341 31.4526C27.8622 31.6316 27.7404 31.8591 27.5933 32.0657C27.6831 32.075 27.7724 32.0839 27.8583 32.0916L27.5938 32.0668C27.5272 32.085 27.4451 32.0872 27.3905 32.122C27.4412 32.0888 27.5233 32.0866 27.59 32.0668L27.5933 32.0645ZM26.2157 33.3348C26.2345 33.2795 26.2527 33.2243 26.2708 33.1691C26.2521 33.2243 26.2339 33.2795 26.2157 33.3348C26.1739 33.3629 26.1303 33.39 26.0868 33.4143C26.127 33.3911 26.1705 33.3657 26.2119 33.3375L26.2157 33.3348ZM23.13 36.4274C23.0667 36.4683 22.9994 36.5053 22.9344 36.5445C22.9956 36.5086 23.0628 36.4716 23.1262 36.4308L23.13 36.4274ZM16.7382 43.0546C16.7658 42.9994 16.7933 42.9442 16.8203 42.8889C16.7928 42.9447 16.7647 42.9999 16.7377 43.0552L16.7382 43.0546ZM28.8606 38.3604L28.6066 38.6685L28.8595 38.3642L28.8606 38.3604ZM33.4748 33.7567C33.4835 33.7579 33.4919 33.76 33.5002 33.7628C33.4918 33.7609 33.4834 33.7596 33.4748 33.7589V33.7567ZM33.9829 33.2806C33.9675 33.2839 33.952 33.2867 33.936 33.2889C33.9201 33.2911 33.8892 33.2972 33.8672 33.3027C33.8892 33.2972 33.9129 33.2933 33.936 33.2889C33.9592 33.2845 33.9669 33.2845 33.9823 33.2812L33.9829 33.2806ZM35.3604 31.7194C35.3902 31.693 35.4219 31.6688 35.4552 31.647C35.4221 31.6697 35.3906 31.6946 35.361 31.7216L35.3604 31.7194ZM40.54 26.7081C40.5582 26.6899 40.5764 26.6711 40.5951 26.6529C40.5769 26.6728 40.5587 26.6916 40.54 26.7081ZM42.2481 24.9961C42.2663 24.9773 42.2851 24.9591 42.3032 24.9409C42.2856 24.9608 42.2669 24.979 42.2481 24.9961ZM46.9643 19.5839C46.9974 19.4387 47.1428 19.331 47.2051 19.1973C47.1434 19.3326 46.9979 19.4403 46.9649 19.5839H46.9643Z" fill="#F0001C"/>
<path d="M47.401 22.847L47.3839 22.747C47.3819 22.7359 47.3778 22.7252 47.3716 22.7158C47.3654 22.7063 47.3574 22.6981 47.3481 22.6918C47.3316 22.6799 47.3114 22.6743 47.2911 22.6761C47.2709 22.6779 47.2519 22.687 47.2379 22.7017C43.2356 26.73 39.2261 30.7514 35.2091 34.766C31.265 38.7185 27.3224 42.6716 23.3325 46.675C23.3072 46.7002 23.29 46.7323 23.2829 46.7673C23.2758 46.8023 23.2792 46.8386 23.2927 46.8716C23.3062 46.9046 23.3292 46.9329 23.3588 46.9529C23.3883 46.9728 23.4231 46.9836 23.4587 46.9837C25.0748 46.9904 26.691 47.0119 28.3076 46.9898C28.9115 46.9805 29.5133 46.9163 30.1056 46.7982C31.3314 46.5611 32.4601 45.9669 33.3506 45.09C35.2091 43.2731 37.0352 41.423 38.8712 39.5828C41.0251 37.4246 43.1851 35.2713 45.3253 33.0992C46.6521 31.7523 47.3585 30.117 47.3927 28.2183C47.4219 26.4384 47.4015 24.6584 47.4032 22.8779C47.4033 22.8676 47.4025 22.8572 47.401 22.847Z" fill="#F28500"/>
<path d="M40.3676 15.9092C38.531 15.913 36.6945 15.9125 34.8574 15.9246C33.1614 15.9357 31.6951 16.5459 30.4917 17.7311C28.4419 19.7496 26.4142 21.7925 24.3853 23.8309C22.3824 25.8428 20.3563 27.8348 18.3968 29.8892C17.2496 31.0926 16.5856 32.5876 16.5052 34.2571C16.4198 36.0845 16.4672 37.9186 16.4589 39.7499C16.4591 39.7944 16.4617 39.8388 16.4666 39.883C16.4694 39.9111 16.48 39.9378 16.4973 39.96C16.5146 39.9823 16.5379 39.9991 16.5644 40.0087C16.5908 40.0182 16.6195 40.02 16.6469 40.0139C16.6744 40.0078 16.6996 39.994 16.7195 39.9741L40.4712 16.161C40.4918 16.1404 40.5058 16.1142 40.5115 16.0856C40.5172 16.057 40.5144 16.0274 40.5033 16.0004C40.4922 15.9735 40.4734 15.9504 40.4492 15.9342C40.4251 15.9179 40.3967 15.9092 40.3676 15.9092Z" fill="#F28500"/>
<path d="M16.8496 28.5011C16.481 28.1299 16.1173 27.7533 15.7476 27.3827C14.5353 26.1644 13.3231 24.9471 12.1108 23.7306L8.13855 19.751C7.10999 18.7271 6.07628 17.7085 5.03743 16.6953C4.52498 16.1983 3.91611 15.9155 3.18105 15.9221C2.21732 15.9293 1.25249 15.9127 0.288755 15.8995C0.0898379 15.8967 -0.00163106 15.9757 2.19981e-05 16.1756C0.00994032 17.1509 -0.00383513 18.1268 0.0347361 19.1026C0.0589809 19.7212 0.260653 20.3027 0.701468 20.7594C1.76861 21.8617 2.84309 22.9565 3.92492 24.0437C5.589 25.7188 7.26299 27.3833 8.92816 29.0566C10.7425 30.8802 12.5546 32.706 14.3645 34.534C14.3907 34.5602 14.424 34.5782 14.4602 34.5858C14.4964 34.5935 14.534 34.5905 14.5686 34.5772C14.6031 34.5639 14.6331 34.5408 14.6549 34.5108C14.6766 34.4808 14.6893 34.4451 14.6913 34.4081C14.8015 32.3493 15.4252 30.4958 16.854 28.9633C17.0011 28.8015 17.0022 28.6551 16.8496 28.5011Z" fill="#F0001C"/>
<path d="M14.3526 37.2098C14.1214 36.8472 13.8567 36.5072 13.5619 36.1942C11.7739 34.3817 9.97092 32.5852 8.17406 30.782C6.88835 29.4934 5.60484 28.2033 4.32354 26.9118C2.99081 25.5705 1.65809 24.2278 0.325358 22.8835C0.323612 22.8814 0.32157 22.8796 0.319296 22.878C0.259219 22.8267 0.196501 22.7786 0.131399 22.7339C0.120126 22.7261 0.107129 22.7211 0.093521 22.7194C0.0799131 22.7177 0.0660996 22.7193 0.053263 22.7242C0.0404264 22.729 0.0289492 22.7369 0.0198139 22.7471C0.0106785 22.7574 0.0041572 22.7697 0.000808162 22.783C-0.000269387 22.7905 -0.000269387 22.7982 0.000808162 22.8057C0.00852241 24.5691 0.0233999 26.3324 0.0250529 28.0958C0.0250529 30.0624 0.728152 31.738 2.10129 33.1297C3.41436 34.4618 4.74617 35.7833 6.07082 37.1126C7.62322 38.6667 9.1747 40.2212 10.7253 41.776C11.9171 42.9755 13.1007 44.1827 14.2898 45.3845C14.3268 45.4212 14.366 45.4557 14.4072 45.4877C14.4304 45.5066 14.4584 45.5184 14.4881 45.5219C14.5177 45.5254 14.5477 45.5203 14.5746 45.5074C14.6015 45.4944 14.6242 45.474 14.64 45.4487C14.6558 45.4233 14.6641 45.394 14.6639 45.364C14.654 43.0445 14.6402 40.725 14.6347 38.4055C14.6336 37.9775 14.5879 37.5633 14.3526 37.2098Z" fill="#F28500"/>
<path d="M8.15905 17.3241C11.456 20.6296 14.7514 23.9366 18.0454 27.245C18.2658 27.4659 18.3138 27.4659 18.5314 27.2395C19.0934 26.6596 19.6516 26.0748 20.2225 25.5032C20.9035 24.8217 21.5916 24.1464 22.2866 23.4774C22.4629 23.3073 22.4866 23.177 22.2949 23.0019C22.0375 22.7667 21.7989 22.5099 21.5543 22.2636C20.0274 20.7388 18.5237 19.1886 16.9654 17.6985C15.9256 16.7045 14.666 16.0743 13.2146 15.9534C12.1005 15.8606 10.9792 15.9053 9.86115 15.8584C8.95252 15.8584 8.04279 15.8584 7.13471 15.8634C7.1259 15.8628 7.11707 15.8628 7.10826 15.8634C7.07495 15.8693 7.04374 15.8838 7.01759 15.9053C6.99144 15.9268 6.97124 15.9547 6.95891 15.9863C6.94658 16.0179 6.94254 16.0521 6.94718 16.0857C6.95181 16.1193 6.96497 16.1511 6.98538 16.1782C6.99349 16.1892 7.00252 16.1996 7.01238 16.2091C7.38928 16.5874 7.78271 16.9469 8.15905 17.3241Z" fill="#F28500"/>
<path d="M13.4301 14.1525C15.287 14.3817 16.8988 15.1223 18.224 16.4615C18.3342 16.572 18.4411 16.6797 18.5546 16.7929C18.5889 16.8268 18.6324 16.8499 18.6798 16.8591C18.7271 16.8684 18.7761 16.8634 18.8206 16.8448C18.8651 16.8262 18.9031 16.7948 18.9299 16.7547C18.9567 16.7145 18.971 16.6673 18.9711 16.6189V4.96613C18.9722 4.93324 18.9635 4.90076 18.9461 4.87285C18.9287 4.84493 18.9034 4.82284 18.8735 4.80939C18.8435 4.79594 18.8102 4.79174 18.7779 4.79733C18.7455 4.80292 18.7155 4.81804 18.6918 4.84077C18.2702 5.25055 17.8493 5.66033 17.4371 6.0795C16.5489 6.98135 15.6402 7.86497 14.7878 8.79996C13.5342 10.174 12.9998 11.8374 13.002 13.682C13.0025 14.0978 13.0141 14.1012 13.4301 14.1525Z" fill="#F0001C"/>
<path d="M20.6905 7.85623C20.6982 8.88565 20.7021 9.92335 20.7032 10.9533C20.7032 12.1633 20.6778 13.3518 20.6905 14.5624C20.6976 15.2428 20.7065 15.9375 20.6905 16.6174C20.6773 16.9176 20.6822 17.2184 20.7054 17.5181C20.7169 17.6396 20.7219 17.7611 20.7252 17.8831C20.7423 18.5276 21.0701 19.0981 21.5176 19.5736C22.1722 20.27 22.84 20.9515 23.5167 21.6281C23.5965 21.7059 23.6882 21.7704 23.7883 21.8191C23.8095 21.8301 23.8332 21.8351 23.8569 21.8336C23.8807 21.8321 23.9036 21.8243 23.9233 21.8109C23.9295 21.8067 23.9344 21.801 23.9376 21.7943L23.9839 21.7479L24.1068 21.6297C24.1575 21.58 24.1316 21.5745 24.1779 21.522C24.325 21.3492 25.1085 20.6174 25.2276 20.4981C26.6365 19.0197 25.3929 20.2568 25.8761 19.7896C25.8868 19.7794 25.8969 19.7687 25.9064 19.7575C25.9241 19.736 26.0668 19.5002 26.0805 19.4753C26.188 19.2809 26.1566 19.2892 26.2872 19.1114C26.5495 18.7552 26.7241 18.4785 26.7241 18.0621C26.728 13.5517 26.5985 8.91216 26.5985 4.40181C26.5985 4.07045 26.6294 3.73909 26.5798 3.41601C26.4861 2.8041 26.1445 2.31148 25.7191 1.87796C25.14 1.28924 24.5515 0.708811 23.9668 0.123963C23.7971 -0.046135 23.6528 -0.0417169 23.4781 0.140531C22.8769 0.761276 22.1479 1.34944 21.5495 1.97184C21.2663 2.26565 20.9203 2.63456 20.8112 3.04047C20.6315 3.70871 20.6717 4.38579 20.6784 5.06784C20.6866 5.99785 20.6839 6.92676 20.6905 7.85623Z" fill="#F28500"/>
<path d="M34.5086 13.4752C34.4805 11.6312 33.9195 9.97659 32.6434 8.62299C31.7761 7.70237 30.8531 6.83365 29.9506 5.94616C29.5318 5.53362 29.1042 5.13102 28.676 4.72787C28.6518 4.70611 28.6218 4.69199 28.5896 4.68728C28.5574 4.68258 28.5245 4.68749 28.4951 4.7014C28.4657 4.71531 28.4411 4.73761 28.4242 4.7655C28.4074 4.79339 28.3992 4.82564 28.4005 4.8582L28.5901 16.511C28.5913 16.5592 28.6066 16.606 28.6341 16.6455C28.6616 16.685 28.7002 16.7155 28.7449 16.7332C28.7897 16.7509 28.8386 16.7549 28.8857 16.7449C28.9327 16.7348 28.9758 16.7111 29.0094 16.6767C29.1224 16.5607 29.2298 16.4508 29.3362 16.3398C30.6344 14.9768 32.2323 14.2103 34.0876 13.9507C34.5025 13.8927 34.5141 13.8888 34.5086 13.4752Z" fill="#F0001C"/>
</g>
<defs>
<clipPath id="clip0_6336_23735">
<rect width="47.4084" height="47" fill="white"/>
</clipPath>
</defs>
</svg>
