<svg width="177" height="23" viewBox="0 0 177 23" fill="none" xmlns="http://www.w3.org/2000/svg">
<path d="M5.26377 22.4494L8.11009 4.34687H0.822266L1.47911 0.331055H20.9029L20.2773 4.34687H12.9895L10.1119 22.4494H5.26377Z" fill="#232323"/>
<path d="M19.3651 22.4494L22.8683 0.331055H27.5913L26.215 9.17841C27.3411 7.54698 29.0197 6.73127 31.2508 6.73127C32.919 6.73127 34.191 7.25416 35.0668 8.29995C35.9634 9.34573 36.2345 11.0085 35.88 13.2883L34.4412 22.4494H29.7182L31.1257 13.3825C31.4594 11.3955 30.8234 10.402 29.2178 10.402C28.1543 10.402 27.2994 10.7471 26.6529 11.4373C26.0065 12.1066 25.5895 13.0374 25.4018 14.2296L24.0881 22.4494H19.3651Z" fill="#232323"/>
<path d="M46.3184 22.7945C44.7128 22.7945 43.3157 22.5017 42.1271 21.9161C40.9385 21.3095 40.021 20.4834 39.3746 19.4376C38.7282 18.3709 38.405 17.1264 38.405 15.7041C38.405 13.9472 38.7699 12.3994 39.4997 11.0608C40.2504 9.7013 41.2722 8.64506 42.565 7.89209C43.8787 7.11821 45.3696 6.73127 47.0378 6.73127C48.7477 6.73127 50.1135 7.10775 51.1352 7.86072C52.157 8.59277 52.866 9.58627 53.2621 10.8412C53.6583 12.0752 53.7626 13.4452 53.5749 14.9511L53.4498 15.7669H42.7839C42.8048 16.8754 43.1593 17.7329 43.8474 18.3395C44.5355 18.9461 45.5156 19.2493 46.7876 19.2493C47.6633 19.2493 48.5079 19.1238 49.3211 18.8728C50.1552 18.6219 50.8954 18.2558 51.5418 17.7748L52.574 20.8808C51.8233 21.4664 50.8954 21.937 49.7903 22.2926C48.6851 22.6272 47.5278 22.7945 46.3184 22.7945ZM47.0065 9.86863C45.8805 9.86863 45.0047 10.2137 44.3791 10.904C43.7536 11.5733 43.3365 12.3785 43.128 13.3197H49.9467C50.0092 12.3367 49.8007 11.521 49.3211 10.8726C48.8623 10.2033 48.0908 9.86863 47.0065 9.86863Z" fill="#232323"/>
<path d="M64.2454 22.4494L67.7486 0.331055H72.5967L71.1892 9.20978H81.4172L82.856 0.331055H87.7041L84.2009 22.4494H79.3528L80.7916 13.257H70.5324L69.0936 22.4494H64.2454Z" fill="#232323"/>
<path d="M96.5957 22.7945C94.99 22.7945 93.593 22.5017 92.4044 21.9161C91.2158 21.3095 90.2983 20.4834 89.6519 19.4376C89.0055 18.3709 88.6823 17.1264 88.6823 15.7041C88.6823 13.9472 89.0472 12.3994 89.777 11.0608C90.5277 9.7013 91.5494 8.64506 92.8423 7.89209C94.156 7.11821 95.6469 6.73127 97.3151 6.73127C99.0249 6.73127 100.391 7.10775 101.413 7.86072C102.434 8.59277 103.143 9.58627 103.539 10.8412C103.936 12.0752 104.04 13.4452 103.852 14.9511L103.727 15.7669H93.0612C93.0821 16.8754 93.4366 17.7329 94.1247 18.3395C94.8128 18.9461 95.7929 19.2493 97.0648 19.2493C97.9406 19.2493 98.7851 19.1238 99.5984 18.8728C100.432 18.6219 101.173 18.2558 101.819 17.7748L102.851 20.8808C102.101 21.4664 101.173 21.937 100.068 22.2926C98.9624 22.6272 97.8051 22.7945 96.5957 22.7945ZM97.2838 9.86863C96.1578 9.86863 95.282 10.2137 94.6564 10.904C94.0308 11.5733 93.6138 12.3785 93.4053 13.3197H100.224C100.286 12.3367 100.078 11.521 99.5984 10.8726C99.1396 10.2033 98.3681 9.86863 97.2838 9.86863Z" fill="#232323"/>
<path d="M110.728 22.7945C109.769 22.7945 108.893 22.5749 108.101 22.1357C107.308 21.6756 106.683 21.0795 106.224 20.3474C105.765 19.6154 105.536 18.8206 105.536 17.963C105.536 16.3316 106.224 15.1498 107.6 14.4178C108.997 13.6648 111.176 13.2883 114.137 13.2883H116.264L116.327 12.8805C116.473 12.0229 116.316 11.3641 115.858 10.904C115.42 10.4438 114.669 10.2137 113.606 10.2137C111.771 10.2137 109.998 10.7262 108.288 11.751L107.319 8.55094C108.132 8.00713 109.164 7.5679 110.415 7.23325C111.687 6.89859 112.97 6.73127 114.262 6.73127C116.014 6.73127 117.39 7.05546 118.391 7.70385C119.392 8.35224 120.07 9.2307 120.424 10.3392C120.779 11.4268 120.841 12.6504 120.612 14.0099L119.298 22.4494H114.888L115.232 20.1905C114.732 21.0899 114.085 21.7488 113.293 22.1671C112.5 22.5854 111.646 22.7945 110.728 22.7945ZM112.323 19.6258C113.22 19.6258 113.971 19.3539 114.575 18.8101C115.201 18.2454 115.587 17.4924 115.733 16.5512L115.889 15.7355H114.231C112.709 15.7355 111.635 15.8819 111.01 16.1747C110.384 16.4466 110.071 16.9381 110.071 17.6493C110.071 18.2768 110.28 18.7683 110.697 19.1238C111.135 19.4585 111.677 19.6258 112.323 19.6258Z" fill="#232323"/>
<path d="M128.67 22.7945C126.752 22.7945 125.376 22.2717 124.542 21.2259C123.708 20.1592 123.447 18.6219 123.76 16.6139L126.325 0.331055H131.048L128.483 16.5512C128.253 18.1617 128.858 18.967 130.297 18.967C130.505 18.967 130.724 18.9565 130.954 18.9356C131.183 18.9147 131.413 18.8938 131.642 18.8728L131.016 22.4808C130.328 22.69 129.546 22.7945 128.67 22.7945Z" fill="#232323"/>
<path d="M141.436 22.7945C139.83 22.7945 138.433 22.5017 137.245 21.9161C136.056 21.3095 135.139 20.4834 134.492 19.4376C133.846 18.3709 133.523 17.1264 133.523 15.7041C133.523 13.9472 133.887 12.3994 134.617 11.0608C135.368 9.7013 136.39 8.64506 137.683 7.89209C138.996 7.11821 140.487 6.73127 142.155 6.73127C143.865 6.73127 145.231 7.10775 146.253 7.86072C147.275 8.59277 147.983 9.58627 148.38 10.8412C148.776 12.0752 148.88 13.4452 148.692 14.9511L148.567 15.7669H137.901C137.922 16.8754 138.277 17.7329 138.965 18.3395C139.653 18.9461 140.633 19.2493 141.905 19.2493C142.781 19.2493 143.625 19.1238 144.439 18.8728C145.273 18.6219 146.013 18.2558 146.659 17.7748L147.692 20.8808C146.941 21.4664 146.013 21.937 144.908 22.2926C143.803 22.6272 142.645 22.7945 141.436 22.7945ZM142.124 9.86863C140.998 9.86863 140.122 10.2137 139.497 10.904C138.871 11.5733 138.454 12.3785 138.246 13.3197H145.064C145.127 12.3367 144.918 11.521 144.439 10.8726C143.98 10.2033 143.208 9.86863 142.124 9.86863Z" fill="#232323"/>
<path d="M150.251 22.4494L152.691 7.045H157.32L156.882 9.68039C157.362 8.82284 158.018 8.14308 158.852 7.6411C159.687 7.11821 160.677 6.81493 161.824 6.73127L163.263 6.63715L163.106 10.6216L160.104 10.9353C158.853 11.0608 157.945 11.4268 157.382 12.0334C156.84 12.64 156.475 13.5393 156.288 14.7315L155.068 22.4494H150.251Z" fill="#232323"/>
<path d="M169.525 22.7945C168.191 22.7945 166.929 22.6377 165.741 22.3239C164.552 22.0102 163.551 21.5605 162.738 20.9749L164.114 17.9316C164.865 18.4336 165.72 18.831 166.679 19.1238C167.638 19.3957 168.577 19.5317 169.494 19.5317C170.391 19.5317 171.058 19.3748 171.496 19.0611C171.955 18.7474 172.184 18.35 172.184 17.8689C172.184 17.1787 171.694 16.7394 170.714 16.5512L167.868 16.0179C166.637 15.8087 165.689 15.359 165.021 14.6688C164.354 13.9577 164.02 13.0687 164.02 12.002C164.02 11.0608 164.292 10.1928 164.834 9.39802C165.397 8.58231 166.22 7.93392 167.305 7.45286C168.389 6.9718 169.724 6.73127 171.308 6.73127C172.288 6.73127 173.289 6.87768 174.311 7.1705C175.354 7.4424 176.25 7.86072 177.001 8.42544L175.687 11.4059C174.999 10.9249 174.248 10.5693 173.435 10.3392C172.643 10.0882 171.85 9.96275 171.058 9.96275C170.12 9.96275 169.411 10.1301 168.931 10.4647C168.472 10.7994 168.243 11.2281 168.243 11.751C168.243 12.0439 168.337 12.3053 168.525 12.5354C168.733 12.7445 169.067 12.8909 169.525 12.9746L172.34 13.508C175.051 14.0099 176.407 15.3485 176.407 17.5238C176.407 19.218 175.771 20.5252 174.499 21.4455C173.248 22.3449 171.59 22.7945 169.525 22.7945Z" fill="#232323"/>
</svg>
